<?xml version="1.0" encoding="UTF-8" standalone="no"?>
<!-- Created with Inkscape (http://www.inkscape.org/) -->
<svg id="svg2" xmlns:rdf="http://www.w3.org/1999/02/22-rdf-syntax-ns#" xmlns="http://www.w3.org/2000/svg" height="91" width="416" version="1.1" xmlns:cc="http://creativecommons.org/ns#" xmlns:dc="http://purl.org/dc/elements/1.1/">
 <defs id="defs4"></defs>
 <metadata id="metadata7">
  <rdf:RDF>
   <cc:Work rdf:about="">
    <dc:format>image/svg+xml</dc:format>
    <dc:type rdf:resource="http://purl.org/dc/dcmitype/StillImage"/>
    <dc:title/>
   </cc:Work>
  </rdf:RDF>
 </metadata>
 <g id="g3703" transform="matrix(0.6010265,0,0,0.6010265,-26.384937,72.999613)">
  <path id="path3370" d="m522.64-23.847,0-0.85875c0-0.26125-0.205-0.365-0.6275-0.365h-2.4125c-1.63,0-2.215-0.24625-2.215-1.7512v-8.9025h4.6662c0.31875,0,0.56875-0.2025,0.56875-0.46125v-0.86875c0-0.27375-0.25-0.46875-0.56875-0.46875h-4.6662v-2.695c0-0.2725-0.20875-0.5-0.48625-0.5h-0.0688l-1.47,0.2125c-0.33,0.05375-0.59,0.2225-0.59,0.48125v13.202c0,2.7825,1.6175,3.575,4.4212,3.575,1.0638,0,2.2862-0.085,2.86-0.1575,0.4575-0.03875,0.58875-0.20375,0.58875-0.4425m-11.385-3.1275c0-1.5012-0.80375-2.6012-3.2812-3.855l-2.9662-1.5088c-1.37-0.7075-2.0512-1.185-2.0512-1.9512,0-1.3,1.1125-1.4725,2.77-1.4725,1.67,0,3.59,0.11625,4.6325,0.19125h0.0925c0.28875,0,0.49875-0.125,0.49875-0.43v-0.85c0-0.2775-0.18375-0.465-0.57125-0.50875-1.3975-0.2075-2.9825-0.33375-4.6525-0.33375-3.0775,0-5.4038,0.73125-5.4038,3.4038,0,1.6162,1.2375,2.7212,3.05,3.6588l3.0125,1.5438c1.6888,0.87,2.2475,1.35,2.2475,2.1125,0,1.3912-1.0325,1.8312-2.9588,1.8312-1.085,0-3.2638-0.13625-4.6912-0.28125h-0.115c-0.31125,0-0.545,0.145-0.545,0.385v0.8925c0,0.27625,0.23375,0.43375,0.63,0.50375,1.4575,0.29,3.6125,0.39625,4.7212,0.39625,3.3262,0,5.5812-1.1,5.5812-3.7275m-14.808,3.0388,0-13.062c0-0.2875-0.275-0.525-0.59-0.525h-1.4388c-0.335,0-0.6,0.2375-0.6,0.525v13.062c0,0.27,0.265,0.52,0.6,0.52h1.4388c0.315,0,0.59-0.25,0.59-0.52m0.0612-16.348,0-2.0425c0-0.28125-0.26625-0.52375-0.60125-0.52375h-1.5225c-0.335,0-0.5925,0.2425-0.5925,0.52375v2.0425c0,0.285,0.2575,0.51625,0.5925,0.51625h1.5225c0.335,0,0.60125-0.23125,0.60125-0.51625m35.018,2.59,0,1.9688c-2.5425,0.02875-3.955,1.5012-3.955,4.1212v0.1375h3.955v1.7062h-3.955v0.3175c0,2.7938,1.4488,4.1525,3.955,4.2912v1.8962c-3.3-0.09875-6.5812-1.5975-6.5812-6.3212v-1.8c0-3.625,2.3462-6.3025,6.5812-6.3175m-41.562,10.719c0-1.5012-0.8125-2.6012-3.2775-3.855l-2.9675-1.5088c-1.3612-0.7075-2.05-1.185-2.05-1.9512,0-1.3,1.1025-1.4725,2.7775-1.4725,1.67,0,3.58,0.11625,4.6262,0.19125h0.0788c0.30125,0,0.52375-0.125,0.52375-0.43v-0.85c0-0.2775-0.18875-0.465-0.56875-0.50875-1.4012-0.2075-2.99-0.33375-4.66-0.33375-3.075,0-5.41,0.73125-5.41,3.4038,0,1.6162,1.2288,2.7212,3.0475,3.6588l3.0162,1.5438c1.7088,0.87,2.24,1.35,2.24,2.1125,0,1.3912-1.0238,1.8312-2.9525,1.8312-1.0762,0-3.2575-0.13625-4.7-0.28125h-0.11125c-0.29625,0-0.54,0.145-0.54,0.385v0.8925c0,0.27625,0.24375,0.43375,0.63625,0.50375,1.4575,0.29,3.6088,0.39625,4.715,0.39625,3.3362,0,5.5762-1.1,5.5762-3.7275m71.45,3.0388,0-9.2788c0-2.6475-1.7275-4.4788-5.3125-4.4788h-0.67625c-1.8025,0-2.9875,0.2525-3.9,0.9225-0.915-0.71875-2.065-0.9225-3.865-0.9225h-0.68875c-3.585,0-5.3088,1.8312-5.3088,4.4788v9.2788c0,0.27,0.20625,0.52,0.53375,0.52h1.55c0.32,0,0.535-0.25,0.535-0.52v-9.2788c0-2.1975,1.1388-2.51,2.69-2.51h0.68875c1.9038,0,2.5588,0.28125,2.5588,1.7325v10.056c0,0.27,0.215,0.52,0.5375,0.52h1.5588c0.3275,0,0.53-0.25,0.53-0.52v-10.056c0-1.4512,0.6575-1.7325,2.58-1.7325h0.67625c1.5762,0,2.6888,0.3125,2.6888,2.51v9.2788c0,0.27,0.2025,0.52,0.5425,0.52h1.5462c0.3225,0,0.535-0.25,0.535-0.52m-29.888-5.8238,0-1.7062,3.9525,0,0-0.1375c0-2.7388-1.2812-4.1212-3.895-4.1212h-0.0575v-1.9688h0.0575c4.345,0,6.5462,2.6625,6.5462,6.3025v1.0725c0,0.33875-0.2075,0.55875-0.5625,0.55875h-6.0412zm0,6.505,0-1.8962c0.12375,0.0075,0.2575,0.0075,0.405,0.0075,1.7262,0,3.725-0.17375,5.095-0.3575h0.14875c0.24625,0,0.4775,0.09875,0.4775,0.3575v0.86875c0,0.33875-0.1125,0.515-0.58875,0.58875-1.7038,0.28125-3.14,0.43875-5.1325,0.43875-0.1475,0-0.26125,0-0.405-0.0075m39.706-14.439,0,1.8988c-2.785,0.07-3.6812,1.7638-3.6812,4.4188v1.8c0,2.6312,0.89625,4.3588,3.6812,4.4325v1.8962c-4.3012-0.08-6.2988-2.5438-6.2988-6.3288v-1.8c0-3.7788,1.9625-6.2462,6.2988-6.3175m20.764,10.719c0-1.5012-0.8-2.6012-3.2775-3.855l-2.955-1.5088c-1.3738-0.7075-2.0625-1.185-2.0625-1.9512,0-1.3,1.1038-1.4725,2.7812-1.4725,1.6625,0,3.5638,0.11625,4.6188,0.19125h0.095c0.2925,0,0.50875-0.125,0.50875-0.43v-0.85c0-0.2775-0.1825-0.465-0.56625-0.50875-1.4075-0.2075-2.9938-0.33375-4.6562-0.33375-3.0875,0-5.4088,0.73125-5.4088,3.4038,0,1.6162,1.2312,2.7212,3.0475,3.6588l3.0212,1.5438c1.6912,0.87,2.2225,1.35,2.2225,2.1125,0,1.3912-1.0038,1.8312-2.9475,1.8312-1.08,0-3.2475-0.13625-4.6788-0.28125h-0.12625c-0.30625,0-0.53875,0.145-0.53875,0.385v0.8925c0,0.27625,0.2325,0.43375,0.62625,0.50375,1.47,0.29,3.6062,0.39625,4.7175,0.39625,3.3462,0,5.5788-1.1,5.5788-3.7275m-20.764,3.7275,0-1.8962,0.2075,0c1.2425,0,2.6575-0.13625,3.4862-0.25875v-10.14c-0.8075-0.1275-2.2438-0.2525-3.4862-0.2525h-0.2075v-1.8988h0.2075c1.7925,0,3.9,0.2525,5.49,0.59125,0.535,0.10375,0.62375,0.22375,0.62375,0.58875v12.078c0,0.3425-0.0888,0.5-0.62375,0.58875-1.59,0.3425-3.67,0.6-5.49,0.6h-0.2075z" style="fill-rule:nonzero;fill:#110f0d;"/>
  <path id="path3374" d="m189.51-55.857c-2.3875-0.0625-8.3875-0.42375-9.9225-0.93875-4.4212-1.25-7.8488-4.6362-8.86-8.8562-0.57125-2.3325-0.5425-5.8175,0-8.1538,2.1312-8.9062,11.326-9.7262,18.782-9.815v-9.495c-0.5075,0-1.0038,0.01625-1.4975,0.01625-6.56,0.04875-9.3062,0.31875-12.631,0.81125-8.5375,1.2888-15.335,7.3438-17.487,15.059-0.43875,1.62-0.775,3.7162-0.86125,5.1175-0.26,3.0162,0.0588,6.9825,0.86125,9.875,2.1625,7.73,8.95,13.778,17.487,15.059,3.57,0.52375,6.4725,0.8125,14.129,0.8125v-9.4912zm18.802-9.795c-0.98625,4.22-4.01,7.6062-8.445,8.8562-1.7362,0.55375-7.9538,0.9425-9.775,0.95-0.16,0-0.365-0.0075-0.5825-0.01125v9.4912h0.2525,0.685c7.85,0,11.379-0.26625,14.946-0.8125,8.535-1.2812,14.011-7.3288,16.158-15.059,0.68-2.3075,0.86125-6.6162,0.88-7.9712l0.035-36.1c0-1.2162-0.915-2.3238-2.4612-2.3238h-8.7288c-1.7538,0-2.6525,1.2888-2.6138,2.385l0.007,17.671c-5.6762-4.235-13.012-4.5475-19.16-4.54v9.495l0.5825-0.0075c7.495,0.04625,16.104,0.89625,18.22,9.8225,0.50875,2.2275,0.51875,5.8712,0,8.1538" style="fill-rule:evenodd;fill:#110f0d;"/>
  <path id="path3378" d="m265.62-55.996-0.006,0c-1.7912-0.0125-8.8038-0.40375-10.494-0.965-4.4125-1.2775-7.8288-4.7062-8.8288-9-0.59-2.3888-0.63375-5.1138,0-7.5062,1.1775-4.3012,4.4162-7.7262,8.8288-8.995,1.69-0.57,8.7025-0.96625,10.494-0.98125h0.006v-9.6225h-0.3425c-7.83,0.0075-10.784,0.285-14.34,0.83125-8.51,1.3-15.306,7.4525-17.449,15.285-1.2875,4.7062-1.2875,9.77,0,14.47,2.1525,7.8225,8.9312,13.982,17.449,15.286,3.56,0.53875,6.51,0.8275,14.34,0.8275h0.3425v-9.63zm19.34-9.965c-1.0212,4.2938-4.405,7.7225-8.8375,9-1.7225,0.56125-8.6775,0.965-10.502,0.965v9.63h0.34c7.845,0,10.758-0.285,14.319-0.8275,8.5162-1.3038,15.345-7.4638,17.482-15.286,0.46125-1.6575,0.77625-3.77,0.86125-5.205,0.1275-1.3738,0.11125-2.6962,0-4.0588-0.085-1.4325-0.4-3.555-0.86125-5.2062-2.1238-7.8325-8.9662-13.985-17.482-15.285-3.5512-0.54625-6.4738-0.82375-14.319-0.83125h-0.34v9.6225c1.8388,0.015,8.7762,0.41875,10.502,0.98125,4.4325,1.2688,7.7975,4.6938,8.8375,8.995,0.605,2.5812,0.53125,4.9362,0,7.5062" style="fill-rule:evenodd;fill:#110f0d;"/>
  <path id="path3382" d="m398.56-74.732c0.2725-10.942-7.7562-17.96-18.86-18.188h-13.532c-4.8938,0-9.21,1.3662-12.528,3.7288-3.195-2.2588-7.2888-3.62-11.93-3.7288h-13.556c-11.342-0.01125-19.65,7.0762-19.42,18.188v25.811c0.004,1.035,0.81125,2.405,2.4,2.405h8.8762c1.7012,0,2.5425-1.3012,2.5862-2.405l0.0112-25.65v-0.0275c0-2.7775,0.43875-8.5062,10.758-8.5062h2.5362c10.344,0,10.781,5.7288,10.781,8.51v25.674c0.0625,1.05,0.8125,2.2588,2.395,2.405h8.9275c1.7375-0.085,2.5925-1.3012,2.5925-2.405l0.0412-25.678c0-2.7775,0.4575-8.5062,10.728-8.5062h2.5788c10.279,0,10.74,5.7288,10.74,8.51l0.02,0.02375,0.0263,25.65c0,1.05,0.78,2.3925,2.3912,2.405h8.87c1.6938,0.0075,2.5825-1.3275,2.5938-2.405l-0.0263-25.811z" style="fill-rule:evenodd;fill:#110f0d;"/>
  <path id="path3386" d="m417.51-93.023c-2.3612,1.7162-4.0388,2.6662-6.5175,4.39-2.1575,1.4388-2.2225,3.1812-2.2038,4.5438v35.169c-0.0262,1.0538,0.84625,2.405,2.3812,2.405h8.8212c1.7275,0,2.5975-1.3012,2.5975-2.405v-42.275c0-1.5688-2.02-4.09-5.0788-1.8275" style="fill-rule:evenodd;fill:#110f0d;"/>
  <path id="path3390" d="m422.56-106.22c0.015-1.0538-0.805-2.4125-2.385-2.4125h-8.8075c-1.6588,0.0775-2.535,1.3238-2.5738,2.4125v10.108c0,1.565,2.0312,4.0888,5.0975,1.8188,2.3662-1.7038,4.0275-2.6512,6.5025-4.3738,2.1988-1.5588,2.1812-3.3025,2.1988-5.2088l-0.0325-2.3438z" style="fill-rule:evenodd;fill:#54b0e6;"/>
  <path id="path3394" d="m491.61-74.732c0.235-10.942-7.895-17.96-19.094-18.188h-19.865c-11.508,0-19.915,7.0762-19.66,18.188v25.811c0.01,1.035,0.80375,2.405,2.4112,2.405h8.75c1.7038,0,2.62-1.3012,2.62-2.405l0.015-25.678c0-2.7775,0.43875-8.5062,10.889-8.5062h9.2138c10.465,0,10.922,5.7288,10.922,8.51l-0.004,25.674c0.0537,1.05,0.8325,2.4125,2.4362,2.405h8.7838c1.7088,0.0075,2.5262-1.3275,2.565-2.405l0.0163-25.811z" style="fill-rule:evenodd;fill:#110f0d;"/>
  <path id="path3398" d="m515.79-106.25c0-1.05-0.81-2.3775-2.3925-2.3775h-8.8262c-1.7125,0-2.5838,1.2925-2.5838,2.3775v7.5175c0.0288,1.0575,0.77875,2.3812,2.4,2.3812h8.8488c1.7,0,2.5538-1.2888,2.5538-2.3812v-7.5175zm0,15.798c-0.0225-1.2425-0.81-2.4425-2.355-2.4625h-8.8475c-1.7088,0-2.5675,1.32-2.5675,2.4162v41.582c0.0175,1.0538,0.82125,2.405,2.39,2.405h8.7725c1.7075-0.02375,2.6075-1.3162,2.6075-2.405v-41.536z" style="fill-rule:evenodd;fill:#110f0d;"/>
  <path id="path3402" d="m558.9-55.996-0.0225,0c-1.7712-0.0125-8.78-0.40375-10.472-0.965-4.41-1.2775-7.83-4.7062-8.8262-9-0.59375-2.3888-0.63375-5.1138,0-7.5062,1.185-4.3012,4.4162-7.7262,8.8262-8.995,1.6925-0.57,8.7012-0.96625,10.472-0.98125h0.0225v-9.6225h-0.335c-7.8325,0.0075-10.795,0.285-14.345,0.83125-8.5038,1.3-15.305,7.4525-17.445,15.285-1.2862,4.7062-1.2862,9.77,0,14.47,2.1512,7.8225,8.9175,13.982,17.445,15.286,3.5612,0.53875,6.5125,0.8275,14.345,0.8275h0.335v-9.63zm19.345-9.965c-1.0362,4.2938-4.4175,7.7225-8.83,9-1.7225,0.56125-8.675,0.965-10.515,0.965v9.63h0.34625c7.8462,0,10.746-0.285,14.316-0.8275,8.5062-1.3038,15.336-7.4638,17.484-15.286,0.44875-1.6575,0.78125-3.77,0.86875-5.205,0.12-1.3738,0.0962-2.6962,0-4.0588-0.085-1.4325-0.42-3.555-0.86875-5.2062-2.1175-7.8325-8.985-13.985-17.484-15.285-3.5612-0.54625-6.475-0.82375-14.316-0.83125h-0.34625v9.6225c1.84,0.015,8.7762,0.41875,10.515,0.98125,4.4212,1.2688,7.78,4.6938,8.83,8.995,0.60875,2.5812,0.5425,4.9362,0,7.5062" style="fill-rule:evenodd;fill:#110f0d;"/>
  <path id="path3406" d="m237.97,0.81475,1.6525,0,8.8988,17.925,3.1225-17.925,1.6525,0-3.5812,20.371-1.6512,0-8.93-17.956-3.1225,17.956-1.62,0,3.5788-20.371z" style="fill-rule:nonzero;fill:#808488;"/>
  <path id="path3410" d="m265.83,12.343c0-2.3225-0.88625-4.5612-3.7925-4.5612-3.7312,0-5.4475,4.2238-5.4475,7.7475,0,2.3212,0.94875,4.615,3.7038,4.615,3.5788,0,5.5362-3.9475,5.5362-7.8012m-5.66,9.1488c-3.5462,0-5.2325-2.845-5.2325-6,0-4.25,2.2975-9.0525,7.2838-9.0525,3.6688,0,5.2588,2.5662,5.2588,5.7825,0,4.4975-2.5062,9.27-7.31,9.27" style="fill-rule:nonzero;fill:#808488;"/>
  <path id="path3414" d="m282.44,19.074,5.5088-12.328,1.6825,0-6.7,14.439-1.59,0-1.6212-12.908-6.1512,12.908-1.59,0-1.62-14.439,1.5912,0,1.225,12.328,5.84-12.328,1.835,0,1.59,12.328z" style="fill-rule:nonzero;fill:#808488;"/>
  <path id="path3418" d="m308.58,11.918c0-2.385-0.94625-4.1375-3-4.1375-3.3312,0-5.8688,5.0188-6.5438,8.9388l-0.34,1.955c1.045,0.79125,2.3262,1.47,4.0388,1.47,4.1,0,5.845-4.4025,5.845-8.2262m-5.8738,9.5738c-1.7712,0-3.4238-0.77-4.2525-1.4362l-1.1612,6.5762h-1.6525l3.4875-19.886h1.6512l-0.855,4.8338c1.1625-2.4475,2.9675-5.14,6.1175-5.14,2.8425,0,4.22,2.2938,4.22,5.415,0,4.2862-2.1712,9.6375-7.555,9.6375" style="fill-rule:nonzero;fill:#808488;"/>
  <path id="path3422" d="m314.37,16.077c0,2.2312,0.79375,4.0675,2.7212,4.0675,3.115,0,5.5312-5.4712,6.2062-9.2412l0.42875-2.385c-0.945-0.39625-1.9588-0.7375-3.4275-0.7375-4.1888,0-5.9288,4.225-5.9288,8.2962m6.0812-9.6375c2.0225,0,3.9175,0.5825,5.1112,1.1925l-2.4188,13.554h-1.62l0.8875-5.1088c-0.915,2.2938-2.7212,5.415-5.72,5.415-2.7225,0-4.0075-2.4488-4.0075-5.415,0-4.865,2.2938-9.6375,7.7675-9.6375" style="fill-rule:nonzero;fill:#808488;"/>
  <path id="path3426" d="m335.83,8.062c-3.1475,0-4.775,4.5575-5.3825,8.17l-0.85625,4.9538h-1.6512l2.5075-14.44h1.65l-0.88625,4.8325c0.79625-2.7525,2.05-5.0138,4.8312-5.0138,0.4025,0,0.82875,0.0613,1.1038,0.15375l-0.245,1.4962c-0.31-0.0922-0.64-0.1522-1.07-0.1522" style="fill-rule:nonzero;fill:#808488;"/>
  <path id="path3430" d="m341.09,21.437c-1.7738,0-2.845-0.9575-2.845-2.5475,0-0.2425,0.0588-0.60875,0.0925-0.79375l1.7425-9.9738h-2.1112l0.27625-1.3762h2.0788l0.6775-3.8562h1.6788l-0.67125,3.8562h3.67l-0.24875,1.3762h-3.6975l-1.7438,9.9412c-0.0337,0.18375-0.06,0.39875-0.06,0.6475,0,0.94375,0.52,1.4075,1.5238,1.4075,0.67875,0,1.3838-0.1225,1.9288-0.3125l0.0662,1.2612c-0.46,0.18125-1.56,0.37-2.3575,0.37" style="fill-rule:nonzero;fill:#808488;"/>
  <path id="path3434" d="m364.49,12.343c0-2.3225-0.885-4.5612-3.7912-4.5612-3.735,0-5.4475,4.2238-5.4475,7.7475,0,2.3212,0.95,4.615,3.7025,4.615,3.5762,0,5.5362-3.9475,5.5362-7.8012m-5.655,9.1488c-3.555,0-5.2388-2.845-5.2388-6,0-4.25,2.2975-9.0525,7.2825-9.0525,3.67,0,5.2625,2.5662,5.2625,5.7825,0,4.4975-2.5075,9.27-7.3062,9.27" style="fill-rule:nonzero;fill:#808488;"/>
  <path id="path3438" d="m377.95,2.2198c-0.4325-0.18625-1.1612-0.3675-1.7762-0.3675-1.65,0-2.295,0.86-2.6288,2.7838l-0.3375,2.11h3.1788l-0.245,1.3475h-3.2112l-2.2938,13.092h-1.65l2.2925-13.092h-2.1125l0.24875-1.3475h2.11l0.36375-2.1675c0.49-2.88,1.6825-4.0738,4.1312-4.0738,0.8575,0,1.715,0.21375,2.2662,0.49l-0.33625,1.225z" style="fill-rule:nonzero;fill:#808488;"/>
  <path id="path3442" d="m391.73,2.2832-3.3312,18.902-1.7112,0,3.335-18.902-6.275,0,0.2775-1.4688,14.195,0-0.24875,1.4688-6.2412,0z" style="fill-rule:nonzero;fill:#808488;"/>
  <path id="path3446" d="m407.21,21.186,1.71-9.8225c0.0637-0.30375,0.0925-0.6725,0.0925-1.0112,0-1.7088-1.0075-2.4725-2.51-2.4725-2.87,0-5.5012,3.4562-6.3288,8.2275l-0.8875,5.0788h-1.6538l3.5825-20.371h1.6488l-1.8625,10.612c1.1912-2.845,3.115-4.9875,6.1462-4.9875,2.1712,0,3.5788,1.2538,3.5788,3.58,0,0.27875-0.03,0.64375-0.0925,1.1662l-1.7775,10h-1.6462z" style="fill-rule:nonzero;fill:#808488;"/>
  <path id="path3450" d="m424.64,12.343c0-2.3225-0.88375-4.5612-3.7925-4.5612-3.7338,0-5.445,4.2238-5.445,7.7475,0,2.3212,0.94875,4.615,3.6975,4.615,3.5838,0,5.54-3.9475,5.54-7.8012m-5.6575,9.1488c-3.5525,0-5.2362-2.845-5.2362-6,0-4.25,2.3-9.0525,7.285-9.0525,3.6675,0,5.26,2.5662,5.26,5.7825,0,4.4975-2.5088,9.27-7.3088,9.27" style="fill-rule:nonzero;fill:#808488;"/>
  <path id="path3454" d="m437.85,21.186,1.7162-9.8225c0.0613-0.27375,0.0925-0.6725,0.0925-1.0112,0-1.7088-1.01-2.4725-2.51-2.4725-2.69,0-5.075,3.395-5.9038,8.0438l-0.92,5.2625h-1.65l2.5112-14.44h1.6162l-0.8225,4.8325c1.0688-2.875,2.8138-5.1388,5.8175-5.1388,2.165,0,3.5712,1.315,3.5712,3.58,0,0.245-0.0288,0.67125-0.0875,1.0988,1.2175-2.75,2.8762-4.6788,5.6862-4.6788,2.1712,0,3.5812,1.315,3.5812,3.58,0,0.27875-0.0312,0.79375-0.0925,1.1662l-1.7712,10h-1.6538l1.7125-9.8225c0.0288-0.1775,0.0913-0.6425,0.0913-1.0112,0-1.5812-0.82875-2.4725-2.4188-2.4725-2.8125,0-5.2275,3.6362-5.9912,8.0438l-0.91875,5.2625h-1.6562z" style="fill-rule:nonzero;fill:#808488;"/>
  <path id="path3458" d="m457.82,21.492c-1.8062,0-3.6412-0.48875-5.1712-1.1625l0.42875-1.2562c1.5312,0.705,3.15,1.1612,4.7425,1.1612,2.17,0,3.485-0.8525,3.485-2.7225,0-1.435-1.3438-2.1388-2.995-2.995-2.4838-1.285-4.04-2.1738-4.04-4.19,0-2.4475,1.895-3.8875,5.1088-3.8875,1.8038,0,3.3975,0.3975,4.7725,1.1625l-0.4275,1.255c-1.2525-0.675-2.7838-1.1638-4.285-1.1638-1.9888,0-3.5462,0.74-3.5462,2.4775,0,1.5338,1.3138,1.9312,3.09,2.94,1.7738,1.0112,3.9425,1.8638,3.9425,4.125,0,2.57-1.985,4.2562-5.105,4.2562" style="fill-rule:nonzero;fill:#808488;"/>
  <path id="path3462" d="m476.76,12.343c0-2.3225-0.88875-4.5612-3.7925-4.5612-3.7325,0-5.4475,4.2238-5.4475,7.7475,0,2.3212,0.9475,4.615,3.7038,4.615,3.5775,0,5.5362-3.9475,5.5362-7.8012m-5.66,9.1488c-3.5512,0-5.2312-2.845-5.2312-6,0-4.25,2.2925-9.0525,7.28-9.0525,3.6738,0,5.2638,2.5662,5.2638,5.7825,0,4.4975-2.5125,9.27-7.3125,9.27" style="fill-rule:nonzero;fill:#808488;"/>
  <path id="path3466" d="m490.36,21.186,1.7125-9.8225c0.0638-0.27375,0.0925-0.6725,0.0925-1.0112,0-1.7088-1.0112-2.4725-2.5088-2.4725-2.905,0-5.505,3.4838-6.3325,8.1975l-0.88875,5.1088h-1.6512l2.51-14.44h1.62l-0.82625,4.8325c1.1325-2.875,3.0612-5.1388,6.2075-5.1388,2.1775,0,3.5838,1.2538,3.5838,3.58,0,0.27875-0.0312,0.79375-0.0925,1.1662l-1.775,10h-1.6512z" style="fill-rule:nonzero;fill:#808488;"/>
  <path id="path3470" d="m513.05,10.876c3.1825,0,5.5088-2.05,5.5088-4.9825,0-2.0812-1.3138-3.6738-3.975-3.6738h-5.9638l-1.5338,8.6562h5.9638zm-5.8712-10.061,7.7088,0c3.6088,0,5.3825,2.1362,5.3825,4.9225,0,3.425-2.5388,5.9288-5.935,6.4538l4.2812,8.995h-1.8312l-4.13-8.9038h-5.8125l-1.5288,8.9038h-1.7138l3.5788-20.371z" style="fill-rule:nonzero;fill:#808488;"/>
  <path id="path3474" d="m523.6,13.445c3.8288-0.0625,8.2912-0.91625,8.2912-3.8262,0-1.2512-1.1025-1.9525-2.4775-1.9525-3.2112,0-5.1388,2.8125-5.8138,5.7788m-0.2425,1.32c-0.03,0.395-0.0612,0.79-0.0612,1.19,0,2.6362,1.1325,4.2488,4.0388,4.2488,1.345,0,2.7512-0.42625,3.8175-0.97625l0.3775,1.165c-0.98625,0.57875-2.7912,1.1-4.44,1.1-3.5775,0-5.3838-2.4188-5.3838-5.6325,0-4.4325,2.6275-9.42,7.8275-9.42,2.295,0,3.9462,1.1612,3.9462,3.0925,0,4.005-5.72,5.0475-10.122,5.2325" style="fill-rule:nonzero;fill:#808488;"/>
  <path id="path3478" d="m538.93,6.7461-1.7475,9.7888c-0.0588,0.36125-0.0913,0.645-0.0913,1.0388,0,1.7138,0.64125,2.4812,2.2925,2.4812,3.1238,0,5.6625-4.1,6.4588-8.6275l0.8225-4.6812h1.6875l-2.5438,14.44h-1.6162l0.82-4.8312c-1.1925,2.7462-3.1762,5.1375-6.1738,5.1375-2.085,0-3.43-1.2875-3.43-3.585,0-0.4225,0.0325-0.79375,0.0937-1.1875l1.7425-9.9738h1.685z" style="fill-rule:nonzero;fill:#808488;"/>
  <path id="path3482" d="m554.59,21.437c-1.7775,0-2.845-0.9575-2.845-2.5475,0-0.2425,0.06-0.60875,0.0888-0.79375l1.7462-9.9738h-2.1125l0.2775-1.3762h2.0775l0.67625-3.8562h1.68l-0.6725,3.8562h3.6725l-0.245,1.3762h-3.7038l-1.7425,9.9412c-0.0312,0.18375-0.065,0.39875-0.065,0.6475,0,0.94375,0.525,1.4075,1.535,1.4075,0.66875,0,1.3738-0.1225,1.9238-0.3125l0.0625,1.2612c-0.45875,0.18125-1.5625,0.37-2.3538,0.37" style="fill-rule:nonzero;fill:#808488;"/>
  <path id="path3486" d="m561.77,13.445c3.825-0.0625,8.2888-0.91625,8.2888-3.8262,0-1.2512-1.0988-1.9525-2.4788-1.9525-3.2125,0-5.1362,2.8125-5.81,5.7788m-0.24125,1.32c-0.0362,0.395-0.0675,0.79-0.0675,1.19,0,2.6362,1.1325,4.2488,4.04,4.2488,1.3475,0,2.7512-0.42625,3.8212-0.97625l0.37,1.165c-0.97625,0.57875-2.7862,1.1-4.4362,1.1-3.575,0-5.3825-2.4188-5.3825-5.6325,0-4.4325,2.6325-9.42,7.8338-9.42,2.2888,0,3.9412,1.1612,3.9412,3.0925,0,4.005-5.72,5.0475-10.12,5.2325" style="fill-rule:nonzero;fill:#808488;"/>
  <path id="path3490" d="m580.95,8.062c-3.15,0-4.7738,4.5575-5.3838,8.17l-0.85625,4.9538h-1.655l2.5112-14.44h1.6525l-0.8925,4.8325c0.79875-2.7525,2.0538-5.0138,4.84-5.0138,0.39125,0,0.8225,0.0613,1.1,0.15375l-0.245,1.4962c-0.31-0.0922-0.64-0.1522-1.07-0.1522" style="fill-rule:nonzero;fill:#808488;"/>
  <path id="path3494" d="m586.73,21.492c-1.8062,0-3.6412-0.48875-5.1712-1.1625l0.43125-1.2562c1.5275,0.705,3.1475,1.1612,4.74,1.1612,2.1738,0,3.4888-0.8525,3.4888-2.7225,0-1.435-1.345-2.1388-2.9988-2.995-2.4812-1.285-4.0375-2.1738-4.0375-4.19,0-2.4475,1.895-3.8875,5.1088-3.8875,1.805,0,3.395,0.3975,4.7712,1.1625l-0.43,1.255c-1.2538-0.675-2.7825-1.1638-4.2825-1.1638-1.9862,0-3.5475,0.74-3.5475,2.4775,0,1.5338,1.3138,1.9312,3.0888,2.94,1.7762,1.0112,3.95,1.8638,3.95,4.125,0,2.57-1.9912,4.2562-5.1112,4.2562" style="fill-rule:nonzero;fill:#808488;"/>
 </g>
</svg>
