<?xml version="1.0" encoding="UTF-8" standalone="no"?>
<!-- Created with Inkscape (http://www.inkscape.org/) -->

<svg
   xmlns:dc="http://purl.org/dc/elements/1.1/"
   xmlns:cc="http://creativecommons.org/ns#"
   xmlns:rdf="http://www.w3.org/1999/02/22-rdf-syntax-ns#"
   xmlns:svg="http://www.w3.org/2000/svg"
   xmlns="http://www.w3.org/2000/svg"
   xmlns:sodipodi="http://sodipodi.sourceforge.net/DTD/sodipodi-0.dtd"
   xmlns:inkscape="http://www.inkscape.org/namespaces/inkscape"
   width="416"
   height="91"
   id="svg2"
   version="1.1"
   inkscape:version="0.48.5 r10040"
   sodipodi:docname="logoMastersaf.svg">
  <defs
     id="defs4">
    <clipPath
       id="clipPath3001"
       clipPathUnits="userSpaceOnUse">
      <path
         id="path3003"
         d="M 0,1359.84 0,0 l 3878.32,0 0,1359.84 -3878.32,0 z"
         inkscape:connector-curvature="0" />
    </clipPath>
  </defs>
  <sodipodi:namedview
     id="base"
     pagecolor="#ffffff"
     bordercolor="#666666"
     borderopacity="1.0"
     inkscape:pageopacity="0.0"
     inkscape:pageshadow="2"
     inkscape:zoom="1"
     inkscape:cx="224.90337"
     inkscape:cy="43.484436"
     inkscape:document-units="px"
     inkscape:current-layer="layer1"
     showgrid="false"
     inkscape:window-width="1680"
     inkscape:window-height="988"
     inkscape:window-x="-8"
     inkscape:window-y="32"
     inkscape:window-maximized="1" />
  <metadata
     id="metadata7">
    <rdf:RDF>
      <cc:Work
         rdf:about="">
        <dc:format>image/svg+xml</dc:format>
        <dc:type
           rdf:resource="http://purl.org/dc/dcmitype/StillImage" />
        <dc:title />
      </cc:Work>
    </rdf:RDF>
  </metadata>
  <g
     inkscape:label="Layer 1"
     inkscape:groupmode="layer"
     id="layer1"
     transform="translate(0,-961.36218)">
    <path
       id="path3005"
       style="fill:#86888b;fill-opacity:1;fill-rule:nonzero;stroke:none"
       d="m 131.42875,985.7507 0,-1.31353 c 0,-0.0447 -0.0359,-0.0798 -0.0804,-0.0798 l -0.16438,0 c -0.0312,0 -0.0602,0.019 -0.074,0.0487 l -0.38432,0.78281 c -0.0108,0.0176 -0.0138,0.0284 -0.0221,0.0284 -0.008,0 -0.0122,-0.0135 -0.0221,-0.0284 l -0.38477,-0.78281 c -0.0138,-0.0284 -0.0418,-0.0487 -0.0743,-0.0487 l -0.16393,0 c -0.0441,0 -0.0802,0.0352 -0.0802,0.0798 l 0,1.31353 c 0,0.019 0.0161,0.0311 0.0344,0.0311 l 0.20203,0 c 0.0184,0 0.0321,-0.0203 0.0321,-0.0393 l 0,-0.86644 c 0,-0.0135 0.003,-0.0203 0.007,-0.0203 0.001,0 0.005,0 0.0108,0.0135 l 0.32555,0.71623 c 0.0122,0.0217 0.0382,0.0338 0.0643,0.0338 l 0.10379,0 c 0.0261,0 0.0524,-0.0135 0.0643,-0.0338 l 0.32324,-0.71623 c 0.004,0 0.009,-0.0135 0.0108,-0.0135 0.004,0 0.007,0 0.007,0.0203 l 0,0.86644 c 0,0.019 0.0138,0.0393 0.0318,0.0393 l 0.20247,0 c 0.0179,0 0.034,-0.0135 0.034,-0.0311 z m -1.65529,-1.19702 0,-0.15819 c 0,-0.023 -0.0179,-0.0379 -0.0405,-0.0379 l -1.07856,0 c -0.0221,0 -0.0399,0.0149 -0.0399,0.0379 l 0,0.15819 c 0,0.0217 0.0179,0.0352 0.0399,0.0352 l 0.40037,0 0,1.15129 c 0,0.0217 0.018,0.0392 0.0399,0.0392 l 0.19789,0 c 0.023,0 0.0405,-0.0176 0.0405,-0.0392 l 0,-1.15129 0.39994,0 c 0.0226,0 0.0405,-0.0135 0.0405,-0.0352 z m -20.41578,4.94479 c 0,0.86712 0.0321,0.8904 0.81685,0.8904 l 2.6177,0 c 0.11204,0 0.20662,0.0934 0.20662,0.20663 l 0,0.66008 c 0,0.14587 -0.0524,0.19838 -0.20662,0.21786 -0.33152,0.0528 -1.00512,0.14411 -2.23477,0.14411 -1.71817,0 -2.62686,0.0135 -2.62686,-2.11908 l 0,-3.27104 c 0,-2.13045 0.90869,-2.11827 2.62686,-2.11827 1.22965,0 1.90325,0.0934 2.23477,0.14344 0.15426,0.0203 0.20662,0.0731 0.20662,0.21867 l 0,0.66008 c 0,0.11367 -0.0946,0.20826 -0.20662,0.20826 l -2.6177,0 c -0.78471,0 -0.81685,0.023 -0.81685,0.88782 l 0,0.94817 3.31011,0 c 0.11475,0 0.20617,0.0934 0.20617,0.20636 l 0,0.74615 c 0,0.11231 -0.0913,0.20622 -0.20617,0.20622 l -3.31011,0 0,1.16414 z m 15.29243,2.12477 c -0.91327,0 -1.84032,-0.15765 -2.33805,-0.27199 -0.10149,-0.0203 -0.1956,-0.092 -0.1956,-0.20541 l 0,-0.74534 c 0,-0.11231 0.094,-0.19634 0.1956,-0.19634 0.0108,0 0.0108,0 0.0226,0 0.41325,0.0528 1.38162,0.1866 2.33577,0.1866 0.92017,0 1.20209,-0.3295 1.20209,-0.92855 0,-0.77605 -1.85043,-1.2046 -2.75498,-1.57808 -0.8995,-0.37118 -1.21908,-1.08377 -1.21908,-1.8065 0,-1.13802 0.91742,-1.96482 2.83948,-1.96482 0.98626,0 1.8876,0.18674 2.2384,0.27118 0.1046,0.0203 0.18551,0.092 0.18551,0.19608 l 0,0.76481 c 0,0.10284 -0.0708,0.18607 -0.17494,0.18607 -0.0108,0 -0.0108,0 -0.0207,0 -0.68232,-0.0622 -1.38896,-0.18783 -2.28754,-0.18783 -0.76773,0 -1.34168,0.26942 -1.34168,0.73451 0,0.34019 0.3912,0.65183 0.84762,0.83518 0.45916,0.18092 1.06158,0.4157 1.7485,0.69162 0.87101,0.35236 1.43671,0.86563 1.43671,1.85778 0,1.04317 -0.6511,2.16103 -2.71962,2.16103 z m -5.49664,-5.17781 c 0,-0.77538 -0.60289,-1.10582 -1.63922,-1.10582 -0.21441,0 -1.15616,0.0203 -1.34349,0.0406 l 0,2.24195 c 0.16851,0.0135 1.17131,0.0325 1.34349,0.0325 1.0671,0 1.63922,-0.20623 1.63922,-1.11529 l 0,-0.0934 z m 1.54967,5.09093 -1.26269,0 c -0.11299,0 -0.15336,-0.10419 -0.20433,-0.20717 l -1.48998,-2.50744 -0.23189,0 c -0.26677,0 -1.10428,-0.0298 -1.34349,-0.042 l 0,2.54926 c 0,0.11366 -0.0808,0.20717 -0.19379,0.20717 l -1.0331,0 c -0.11475,0 -0.20616,-0.0947 -0.20616,-0.20717 l 0,-6.77687 c 0,-0.20677 0.1207,-0.27943 0.32876,-0.30988 0.53721,-0.0825 1.69522,-0.13396 2.44778,-0.13396 1.59514,0 3.06401,0.56887 3.06401,2.33626 l 0,0.0934 c 0,1.095 -0.5487,1.69351 -1.39632,2.02355 l 1.6259,2.76671 c 0.0197,0.0311 0.0197,0.0609 0.0197,0.0825 0,0.0717 -0.0418,0.12314 -0.12435,0.12314 z m -14.0412,-6.14615 -2.06256,0 0,5.93898 c 0,0.11367 -0.0951,0.20717 -0.20985,0.20717 l -1.02164,0 c -0.11475,0 -0.20892,-0.0947 -0.20892,-0.20717 l 0,-5.93898 -2.06302,0 c -0.11299,0 -0.20662,-0.0717 -0.20662,-0.18579 l 0,-0.81691 c 0,-0.11502 0.0936,-0.19648 0.20662,-0.19648 l 5.56599,0 c 0.11109,0 0.20524,0.0812 0.20524,0.19648 l 0,0.81691 c 0,0.11502 -0.094,0.18579 -0.20524,0.18579 z m -9.898644,6.22734 c -1.66356,0 -3.09661,-0.72341 -3.09661,-2.92625 l 0,-4.30379 c 0,-0.11502 0.094,-0.19648 0.208,-0.19648 l 1.02256,0 c 0.11474,0 0.20615,0.0812 0.20615,0.19648 l 0,4.30379 c 0,1.17876 0.54504,1.73735 1.6599,1.73735 1.11851,0 1.6617,-0.55859 1.6617,-1.73735 l 0,-4.30379 c 0,-0.11502 0.0932,-0.19648 0.20662,-0.19648 l 1.02394,0 c 0.11475,0 0.20709,0.0812 0.20709,0.19648 l 0,4.30379 c 0,2.20284 -1.43306,2.92625 -3.09935,2.92625 z m -8.28287,-2.11908 c 0,0.86712 0.033,0.8904 0.81502,0.8904 l 2.61907,0 c 0.11299,0 0.20617,0.0934 0.20617,0.20663 l 0,0.66008 c 0,0.14587 -0.052,0.19838 -0.20617,0.21786 -0.33197,0.0528 -1.00556,0.14411 -2.23429,0.14411 -1.71728,0 -2.6264,0.0135 -2.6264,-2.11908 l 0,-3.27104 c 0,-2.13045 0.90913,-2.11827 2.6264,-2.11827 1.22873,0 1.90232,0.0934 2.23429,0.14344 0.15428,0.0203 0.20617,0.0731 0.20617,0.21867 l 0,0.66008 c 0,0.11367 -0.0932,0.20826 -0.20617,0.20826 l -2.61907,0 c -0.78196,0 -0.81502,0.023 -0.81502,0.88782 l 0,0.94817 3.31011,0 c 0.11299,0 0.20616,0.0934 0.20616,0.20636 l 0,0.74615 c 0,0.11231 -0.0932,0.20622 -0.20616,0.20622 l -3.31011,0 0,1.16414 z m -4.43092,-3.05304 c 0,-0.77538 -0.60289,-1.10582 -1.63693,-1.10582 -0.21763,0 -1.15755,0.0203 -1.34258,0.0406 l 0,2.24195 c 0.16438,0.0135 1.16581,0.0325 1.34258,0.0325 1.06481,0 1.63693,-0.20623 1.63693,-1.11529 l 0,-0.0934 z m 1.55058,5.09093 -1.26269,0 c -0.11299,0 -0.1552,-0.10419 -0.2057,-0.20717 l -1.49044,-2.50744 -0.22866,0 c -0.26908,0 -1.10568,-0.0298 -1.3426,-0.042 l 0,2.54926 c 0,0.11366 -0.084,0.20717 -0.1979,0.20717 l -1.03312,0 c -0.11384,0 -0.20709,-0.0947 -0.20709,-0.20717 l 0,-6.77687 c 0,-0.20677 0.12353,-0.27943 0.3306,-0.30988 0.53906,-0.0825 1.69524,-0.13396 2.45011,-0.13396 1.59282,0 3.06261,0.56887 3.06261,2.33626 l 0,0.0934 c 0,1.095 -0.54778,1.69351 -1.3954,2.02355 l 1.62223,2.76671 c 0.0215,0.0311 0.0215,0.0609 0.0215,0.0825 0,0.0717 -0.0413,0.12314 -0.12355,0.12314 z m -20.090222,-4.20189 c 0,-1.36455 -0.825115,-1.9743 -1.837571,-1.9743 -1.014296,0 -1.839409,0.60975 -1.839409,1.9743 l 0,1.05764 c 0,1.36509 0.825113,1.97443 1.839409,1.97443 1.012456,0 1.837571,-0.60934 1.837571,-1.97443 l 0,-1.05764 z m -1.837571,4.28308 c -1.705796,0 -3.285775,-0.95006 -3.285775,-3.22544 l 0,-1.05764 c 0,-2.2747 1.579979,-3.22531 3.285775,-3.22531 1.705792,0 3.284855,0.95061 3.284855,3.22531 l 0,1.05764 c 0,2.27538 -1.579063,3.22544 -3.284855,3.22544 z m -7.308964,0 c -0.913739,0 -1.840328,-0.15778 -2.337145,-0.27212 -0.104236,-0.0203 -0.19744,-0.092 -0.19744,-0.20541 l 0,-0.7452 c 0,-0.11231 0.09321,-0.19635 0.19744,-0.19635 0.0092,0 0.0092,0 0.01976,0 0.414166,0.0528 1.381164,0.18647 2.338065,0.18647 0.920163,0 1.198872,-0.32936 1.198872,-0.92842 0,-0.77605 -1.848133,-1.20473 -2.751308,-1.57808 -0.900419,-0.37131 -1.21862,-1.08389 -1.21862,-1.80663 0,-1.13789 0.915572,-1.96482 2.839008,-1.96482 0.984905,0 1.888079,0.18674 2.238426,0.27118 0.104235,0.0203 0.185042,0.092 0.185042,0.19608 l 0,0.76495 c 0,0.10284 -0.07118,0.18593 -0.174942,0.18593 -0.01001,0 -0.01001,0 -0.02068,0 -0.683693,-0.0609 -1.391265,-0.18769 -2.290765,-0.18769 -0.764048,0 -1.338921,0.26928 -1.338921,0.73437 0,0.34033 0.388452,0.65291 0.846697,0.83532 0.458246,0.18092 1.062045,0.41556 1.748953,0.69148 0.874247,0.3525 1.437642,0.86576 1.437642,1.85791 0,1.04317 -0.651094,2.16103 -2.720084,2.16103 z m 18.100219,-0.0866 -1.045974,0 c -0.248407,0 -0.465132,0 -0.628595,-0.37172 l -2.80411,-4.69892 c -0.03078,-0.0609 -0.06291,-0.0839 -0.09321,-0.0839 -0.02986,0 -0.05234,0.023 -0.05234,0.0839 l 0,4.86347 c 0,0.11367 -0.08219,0.20717 -0.196061,0.20717 l -0.877002,0 c -0.11571,0 -0.207543,-0.0947 -0.207543,-0.20717 l 0,-6.72531 c 0,-0.22774 0.185044,-0.41286 0.411869,-0.41286 l 1.118064,0 c 0.217184,0 0.329221,0.0609 0.45503,0.33275 l 2.916147,4.97456 c 0.01976,0.0528 0.05052,0.0839 0.08265,0.0839 0.02064,0 0.05005,-0.0325 0.05005,-0.0947 l 0,-5.10014 c 0,-0.11502 0.08357,-0.19648 0.198359,-0.19648 l 0.8894,0 c 0.11295,0 0.196522,0.0812 0.196522,0.19648 l 0,6.73505 c 0,0.22774 -0.186421,0.41394 -0.413248,0.41394 z m -22.712057,0 -1.045056,0 c -0.09229,0 -0.163922,-0.10419 -0.163922,-0.20717 l 0,-4.47105 c 0,-0.0731 -0.01056,-0.10149 -0.03355,-0.10149 -0.0083,0 -0.02847,0.0311 -0.05097,0.0609 l -1.668604,3.69702 c -0.06153,0.11367 -0.195145,0.177 -0.32968,0.177 l -0.538138,0 c -0.134534,0 -0.26907,-0.0636 -0.328762,-0.177 l -1.680538,-3.69702 c -0.02204,-0.0311 -0.04317,-0.0609 -0.05234,-0.0609 -0.0202,0 -0.03122,0.0311 -0.03122,0.10149 l 0,4.47105 c 0,0.10149 -0.07302,0.20717 -0.165758,0.20717 l -1.042759,0 c -0.09414,0 -0.177697,-0.0541 -0.177697,-0.15561 l 0,-6.77687 c 0,-0.22774 0.186421,-0.41286 0.414166,-0.41286 l 0.848534,0 c 0.163922,0 0.309016,0.10284 0.382023,0.24845 l 1.983587,4.03857 c 0.05097,0.0934 0.0721,0.14452 0.11525,0.14452 0.04041,0 0.06153,-0.0514 0.11433,-0.14452 l 1.983128,-4.03857 c 0.07256,-0.14533 0.217184,-0.24845 0.382023,-0.24845 l 0.848995,0 c 0.226825,0 0.413705,0.18512 0.413705,0.41286 l 0,6.77687 c 0,0.10148 -0.08403,0.15561 -0.176778,0.15561 z m -10.358268,-4.20203 c 0,-1.36455 -0.824657,-1.97416 -1.837571,-1.97416 -1.013833,0 -1.83849,0.60961 -1.83849,1.97416 l 0,1.05764 c 0,1.36523 0.824657,1.97443 1.83849,1.97443 1.012914,0 1.837571,-0.6092 1.837571,-1.97443 l 0,-1.05764 z m -1.837571,4.28309 c -1.706256,0 -3.284856,-0.95007 -3.284856,-3.22545 l 0,-1.05764 c 0,-2.2747 1.578604,-3.22531 3.284856,-3.22531 1.70625,0 3.286688,0.95061 3.286688,3.22531 l 0,1.05764 c 0,2.27538 -1.580442,3.22545 -3.286688,3.22545 z m -5.124265,-0.0812 -1.022097,0 c -0.11617,0 -0.20892,-0.0947 -0.20892,-0.20718 l 0,-2.99486 -3.275213,0 0,2.99486 c 0,0.11367 -0.09321,0.20718 -0.205705,0.20718 l -1.023935,0 c -0.11479,0 -0.207081,-0.0947 -0.207081,-0.20718 l 0,-6.94168 c 0,-0.11502 0.09229,-0.19648 0.207081,-0.19648 l 1.023935,0 c 0.11249,0 0.205705,0.0812 0.205705,0.19648 l 0,2.68539 3.275213,0 0,-2.68539 c 0,-0.11502 0.09275,-0.19648 0.20892,-0.19648 l 1.022097,0 c 0.11203,0 0.205705,0.0812 0.205705,0.19648 l 0,6.94168 c 0,0.11367 -0.09367,0.20718 -0.205705,0.20718 z m -7.460947,-6.14629 -2.062562,0 0,5.93911 c 0,0.11367 -0.09275,0.20718 -0.207541,0.20718 l -1.022557,0 c -0.11433,0 -0.206625,-0.0947 -0.206625,-0.20718 l 0,-5.93911 -2.064857,0 c -0.11295,0 -0.207083,-0.0717 -0.207083,-0.18566 l 0,-0.81691 c 0,-0.11502 0.09413,-0.19648 0.207083,-0.19648 l 5.564142,0 c 0.11341,0 0.207543,0.0812 0.207543,0.19648 l 0,0.81691 c 0,0.11503 -0.09413,0.18566 -0.207543,0.18566"
       inkscape:connector-curvature="0" />
    <g
       style="font-size:30.83487129px;font-style:normal;font-variant:normal;font-weight:bold;font-stretch:normal;text-align:start;line-height:125%;letter-spacing:0px;word-spacing:0px;writing-mode:lr-tb;text-anchor:start;fill:#f6891f;fill-opacity:1;stroke:none;font-family:Knowledge Medium;-inkscape-font-specification:Knowledge Medium"
       id="text3396">
      <path
         d="m 20.696825,1011.3398 c -0.0064,3.0874 0.784993,5.6158 2.374255,7.5853 1.589254,1.9696 4.014897,2.9871 7.276936,3.0526 3.262016,-0.066 5.687659,-1.083 7.276936,-3.0526 1.58924,-1.9695 2.380657,-4.4979 2.374254,-7.5853 0.0064,-3.0872 -0.785014,-5.6157 -2.374254,-7.5852 -1.589277,-1.9696 -4.01492,-2.9871 -7.276936,-3.0526 -3.262038,0.066 -5.687681,1.083 -7.276936,3.0526 -1.589263,1.9695 -2.38068,4.498 -2.374255,7.5852 z m 9.651191,7.3387 c -2.008747,-0.036 -3.479807,-0.7195 -4.413185,-2.0505 -0.93339,-1.3311 -1.394622,-3.0938 -1.383697,-5.2882 -0.01093,-2.1943 0.450307,-3.957 1.383698,-5.2881 0.933378,-1.331 2.404437,-2.0145 4.413184,-2.0505 1.995234,0.036 3.46244,0.7195 4.401621,2.0505 0.939151,1.3311 1.404237,3.0938 1.39526,5.2881 0.009,2.1944 -0.45611,3.9571 -1.395261,5.2882 -0.939181,1.331 -2.406386,2.0145 -4.40162,2.0505 z"
         style="font-weight:normal;fill:#f6891f;font-family:Knowledge Medium;-inkscape-font-specification:Knowledge Medium"
         id="path2993" />
      <path
         d="m 43.215903,1021.6077 3.730971,0 0,-14.153 9.928701,14.153 3.823475,0 0,-20.5357 -3.761806,0 0,14.153 -9.897867,-14.153 -3.823474,0 z"
         style="font-weight:normal;fill:#f6891f;font-family:Knowledge Medium;-inkscape-font-specification:Knowledge Medium"
         id="path2995" />
      <path
         d="m 65.017121,1021.6077 13.813844,0 0,-3.3301 -9.959535,0 0,-5.5502 9.312011,0 0,-3.3301 -9.312011,0 0,-4.9952 9.959535,0 0,-3.3301 -13.813844,0 z"
         style="font-weight:normal;fill:#f6891f;font-family:Knowledge Medium;-inkscape-font-specification:Knowledge Medium"
         id="path2997" />
      <path
         d="m 96.729155,1015.7492 c -0.01094,-1.9214 -0.605784,-3.3282 -1.784545,-4.2205 -1.17879,-0.8923 -2.875969,-1.5822 -5.091543,-2.0698 -1.660572,-0.3834 -2.841275,-0.7804 -3.54211,-1.1909 -0.700847,-0.4105 -1.041311,-1.0311 -1.021392,-1.8617 0.0026,-0.97 0.328897,-1.6432 0.978995,-2.0196 0.650087,-0.3764 1.608524,-0.5563 2.875315,-0.5396 1.090116,0.01 2.162898,0.1381 3.218348,0.3893 1.055425,0.2511 2.027995,0.5736 2.917712,0.9674 l 0.709193,-3.0835 c -0.993141,-0.4637 -2.051791,-0.8158 -3.175951,-1.056 -1.124185,-0.2403 -2.367841,-0.361 -3.730971,-0.3623 -2.315162,-0.031 -4.16009,0.4162 -5.534789,1.3413 -1.374706,0.925 -2.078759,2.513 -2.112161,4.7639 0.0026,1.7768 0.583283,3.1413 1.742147,4.0933 1.158858,0.952 2.880448,1.6535 5.164775,2.1044 1.631006,0.3251 2.793721,0.7079 3.48815,1.1486 0.694406,0.4407 1.0323,1.1165 1.013684,2.0274 -0.01415,0.9456 -0.37902,1.6213 -1.094625,2.0273 -0.715628,0.406 -1.697191,0.6039 -2.944692,0.5936 -1.031035,-0.01 -2.106386,-0.14 -3.226057,-0.4009 -1.119681,-0.2608 -2.202741,-0.6102 -3.249182,-1.0483 l -0.832531,3.1143 c 1.084343,0.4541 2.268899,0.8177 3.553673,1.0907 1.284763,0.273 2.546406,0.4131 3.784932,0.4201 2.500793,-0.015 4.436938,-0.5633 5.808443,-1.6457 1.371476,-1.0825 2.066536,-2.6101 2.085182,-4.5828 z"
         style="font-weight:normal;fill:#f6891f;font-family:Knowledge Medium;-inkscape-font-specification:Knowledge Medium"
         id="path2999" />
      <path
         d="m 98.807818,1011.3398 c -0.0064,3.0874 0.784992,5.6158 2.374252,7.5853 1.58926,1.9696 4.0149,2.9871 7.27694,3.0526 3.26201,-0.066 5.68766,-1.083 7.27693,-3.0526 1.58924,-1.9695 2.38066,-4.4979 2.37426,-7.5853 0.006,-3.0872 -0.78502,-5.6157 -2.37426,-7.5852 -1.58927,-1.9696 -4.01492,-2.9871 -7.27693,-3.0526 -3.26204,0.066 -5.68768,1.083 -7.27694,3.0526 -1.58926,1.9695 -2.380678,4.498 -2.374252,7.5852 z m 9.651192,7.3387 c -2.00875,-0.036 -3.47981,-0.7195 -4.41319,-2.0505 -0.93339,-1.3311 -1.39462,-3.0938 -1.38369,-5.2882 -0.0109,-2.1943 0.4503,-3.957 1.38369,-5.2881 0.93338,-1.331 2.40444,-2.0145 4.41319,-2.0505 1.99523,0.036 3.46244,0.7195 4.40162,2.0505 0.93915,1.3311 1.40424,3.0938 1.39526,5.2881 0.009,2.1944 -0.45611,3.9571 -1.39526,5.2882 -0.93918,1.331 -2.40639,2.0145 -4.40162,2.0505 z"
         style="font-weight:normal;fill:#f6891f;font-family:Knowledge Medium;-inkscape-font-specification:Knowledge Medium"
         id="path3001" />
      <path
         d="m 138.16251,1001.072 -3.88514,0 0,13.1355 c -0.0167,1.4408 -0.43041,2.5444 -1.24109,3.3108 -0.8107,0.7664 -1.91817,1.1531 -3.32241,1.1602 -1.41904,-0.01 -2.53551,-0.3938 -3.3494,-1.1602 -0.81391,-0.7664 -1.22889,-1.87 -1.24494,-3.3108 l 0,-13.1355 -3.85431,0 0,12.9196 c -0.004,2.2214 0.69056,4.092 2.08518,5.6119 1.39461,1.5199 3.51577,2.3113 6.36347,2.3742 2.83419,-0.063 4.95148,-0.8543 6.3519,-2.3742 1.40038,-1.5199 2.09929,-3.3905 2.09674,-5.6119 z"
         style="font-weight:normal;fill:#f6891f;font-family:Knowledge Medium;-inkscape-font-specification:Knowledge Medium"
         id="path3004" />
      <path
         d="m 158.59352,1007.4855 c -0.0129,-1.9399 -0.60386,-3.4868 -1.77299,-4.6406 -1.16915,-1.1537 -2.83935,-1.7446 -5.0106,-1.7729 l -9.40451,0 0,20.5357 3.85431,0 0,-7.6778 3.82347,0 4.90268,7.6778 4.84102,0 -5.51937,-8.0786 c 1.33871,-0.4811 2.38451,-1.2533 3.1374,-2.3164 0.75286,-1.0632 1.13572,-2.3056 1.14859,-3.7272 z m -3.85431,0 c -0.0135,1.0857 -0.33341,1.9208 -0.95973,2.5053 -0.62633,0.5846 -1.47814,0.8801 -2.5554,0.8865 l -4.96435,0 0,-6.6911 4.96435,0 c 1.07727,0.01 1.92907,0.2943 2.55541,0.8634 0.62631,0.5692 0.94621,1.3812 0.95972,2.4359 z"
         style="font-weight:normal;fill:#f6891f;font-family:Knowledge Medium;-inkscape-font-specification:Knowledge Medium"
         id="path3006" />
      <path
         d="m 161.68204,1011.3398 c 0.0398,3.3302 0.97,5.928 2.79052,7.7935 1.82051,1.8654 4.29241,2.8136 7.41569,2.8444 1.28668,-0.011 2.42884,-0.1278 3.42648,-0.3507 0.99761,-0.2229 1.8083,-0.4863 2.43207,-0.7901 l -0.58585,-3.0526 c -0.64754,0.2518 -1.36445,0.4573 -2.15071,0.6166 -0.78629,0.1594 -1.54944,0.2416 -2.28946,0.2467 -2.32287,-0 -4.09842,-0.6205 -5.32665,-1.8501 -1.22825,-1.2295 -1.84751,-3.0487 -1.85778,-5.4577 0.0103,-2.4089 0.62953,-4.2281 1.85778,-5.4577 1.22823,-1.2295 3.00378,-1.8462 5.32665,-1.85 0.74002,0.01 1.50317,0.087 2.28946,0.2467 0.78626,0.1593 1.50317,0.3648 2.15071,0.6166 l 0.58585,-3.0526 c -0.62377,-0.3038 -1.43446,-0.5672 -2.43207,-0.7901 -0.99764,-0.2229 -2.1398,-0.3398 -3.42648,-0.3507 -3.12328,0.031 -5.59518,0.979 -7.41569,2.8444 -1.82052,1.8655 -2.75069,4.4633 -2.79052,7.7934 z"
         style="font-weight:normal;fill:#f6891f;font-family:Knowledge Medium;-inkscape-font-specification:Knowledge Medium"
         id="path3008" />
      <path
         d="m 180.88878,1021.6077 13.81384,0 0,-3.3301 -9.95953,0 0,-5.5502 9.31201,0 0,-3.3301 -9.31201,0 0,-4.9952 9.95953,0 0,-3.3301 -13.81384,0 z"
         style="font-weight:normal;fill:#f6891f;font-family:Knowledge Medium;-inkscape-font-specification:Knowledge Medium"
         id="path3010" />
      <path
         d="m 196.01835,1002.6852 c 0.0106,0.7908 0.27544,1.4614 0.79462,2.0117 0.51918,0.5504 1.22929,0.8374 2.13034,0.8613 0.90105,-0.024 1.61117,-0.3109 2.13035,-0.8613 0.51918,-0.5503 0.78405,-1.2209 0.79462,-2.0117 -0.0106,-0.796 -0.27544,-1.466 -0.79462,-2.0101 -0.51918,-0.5441 -1.2293,-0.82736 -2.13035,-0.84985 -0.90105,0.0225 -1.61116,0.30575 -2.13034,0.84985 -0.51918,0.5441 -0.78406,1.2141 -0.79462,2.0101 z m 0.481,0 c 0.009,-0.699 0.23128,-1.2769 0.66624,-1.7338 0.43495,-0.4569 1.02752,-0.6936 1.77772,-0.7102 0.74397,0.017 1.33275,0.2533 1.76636,0.7102 0.43359,0.4569 0.65513,1.0348 0.66461,1.7338 -0.009,0.699 -0.23102,1.277 -0.66461,1.7339 -0.43361,0.4569 -1.02239,0.6936 -1.76636,0.7101 -0.7502,-0.016 -1.34277,-0.2532 -1.77772,-0.7101 -0.43496,-0.4569 -0.65704,-1.0349 -0.66624,-1.7339 z m 3.61395,-0.624 c -0.004,-0.2684 -0.0972,-0.4758 -0.28112,-0.6223 -0.1839,-0.1466 -0.43685,-0.2208 -0.75887,-0.2227 l -1.11798,0 0,2.782 0.67599,0 0,-1.014 0.208,0 0.72799,1.014 0.80599,0 -0.81899,-1.092 c 0.17684,-0.073 0.31388,-0.1833 0.41112,-0.3299 0.0972,-0.1465 0.14651,-0.3182 0.14787,-0.5151 z m -0.67599,0.039 c -0.002,0.1243 -0.0406,0.2202 -0.117,0.2876 -0.0764,0.067 -0.18038,0.1016 -0.312,0.1024 l -0.37699,0 0,-0.767 0.37699,0 c 0.13162,3e-4 0.23562,0.032 0.312,0.096 0.0764,0.064 0.11537,0.1574 0.117,0.2811 z"
         style="font-size:13px;baseline-shift:super;fill:#f6891f"
         id="path3012" />
    </g>
    <g
       style="font-size:32.86342621px;font-style:normal;font-variant:normal;font-weight:bold;font-stretch:normal;text-align:start;line-height:125%;letter-spacing:0px;word-spacing:0px;writing-mode:lr-tb;text-anchor:start;fill:#86888b;fill-opacity:1;stroke:none;font-family:Knowledge Light;-inkscape-font-specification:Knowledge Light"
       id="text3392">
      <path
         d="m 225.01514,1022.0653 1.7746,0 0,-18.4033 7.22986,15.6428 2.00464,0 7.22986,-15.6428 0,18.4033 1.80747,0 0,-21.8868 -1.90606,0 -8.11716,17.5489 -8.11716,-17.5489 -1.90605,0 z"
         style="font-weight:normal;fill:#86888b;font-family:Knowledge Light;-inkscape-font-specification:Knowledge Light"
         id="path3015" />
      <path
         d="m 248.52535,1022.0653 1.87319,0 2.26755,-6.244 10.18753,0 2.30041,6.244 1.87319,0 -8.21575,-21.8868 -2.03751,0 z m 9.26736,-20.3751 4.50224,12.5208 -9.03733,0 z"
         style="font-weight:normal;fill:#86888b;font-family:Knowledge Light;-inkscape-font-specification:Knowledge Light"
         id="path3017" />
      <path
         d="m 284.55578,1016.5772 c -0.0315,-1.8848 -0.71616,-3.2829 -2.05394,-4.1942 -1.33781,-0.9112 -3.1398,-1.6602 -5.40596,-2.247 -1.9848,-0.534 -3.46226,-1.1337 -4.4324,-1.7992 -0.97015,-0.6655 -1.45351,-1.6431 -1.45008,-2.933 0.0123,-1.4925 0.52169,-2.5496 1.52813,-3.1713 1.00642,-0.6217 2.43596,-0.9229 4.28862,-0.9037 1.15499,0.01 2.27096,0.1403 3.34792,0.3984 1.07693,0.2581 2.0861,0.5964 3.0275,1.0147 l 0.3615,-1.5446 c -0.87431,-0.4183 -1.878,-0.7565 -3.01108,-1.0146 -1.1331,-0.25813 -2.37504,-0.39096 -3.72584,-0.39851 -2.43392,-0.004 -4.31944,0.46421 -5.65654,1.40491 -1.33712,0.9407 -2.01492,2.3785 -2.0334,4.3133 -0.026,1.4548 0.51074,2.6858 1.61028,3.6929 1.09954,1.0072 2.91796,1.8356 5.45526,2.4853 2.10186,0.4991 3.6738,1.103 4.71584,1.8116 1.04202,0.7086 1.56235,1.7807 1.561,3.2164 -0.0288,1.4118 -0.5628,2.4661 -1.60207,3.1631 -1.03931,0.697 -2.41134,1.0448 -4.1161,1.0434 -1.21388,-0.01 -2.43392,-0.1629 -3.66011,-0.4601 -1.22621,-0.2971 -2.3723,-0.6805 -3.43829,-1.1502 l -0.46009,1.5446 c 1.13035,0.4696 2.34491,0.853 3.64369,1.1502 1.29877,0.2971 2.6037,0.4505 3.9148,0.4601 2.35791,-0.015 4.20646,-0.5354 5.54564,-1.561 1.33915,-1.0256 2.02105,-2.4661 2.04572,-4.3215 z"
         style="font-weight:normal;fill:#86888b;font-family:Knowledge Light;-inkscape-font-specification:Knowledge Light"
         id="path3019" />
      <path
         d="m 302.1634,1001.7888 0,-1.6103 -15.60993,0 0,1.6103 6.86837,0 0,20.2765 1.90605,0 0,-20.2765 z"
         style="font-weight:normal;fill:#86888b;font-family:Knowledge Light;-inkscape-font-specification:Knowledge Light"
         id="path3021" />
      <path
         d="m 305.63477,1022.0653 13.63815,0 0,-1.6103 -11.76496,0 0,-8.9387 10.97624,0 0,-1.6103 -10.97624,0 0,-8.1172 11.76496,0 0,-1.6103 -13.63815,0 z"
         style="font-weight:normal;fill:#86888b;font-family:Knowledge Light;-inkscape-font-specification:Knowledge Light"
         id="path3023" />
      <path
         d="m 339.14807,1006.3239 c 0.003,-1.7657 -0.55389,-3.2212 -1.6719,-4.3666 -1.11804,-1.1454 -2.81733,-1.7383 -5.09787,-1.7788 l -8.64297,0 0,21.8868 1.87319,0 0,-9.5303 6.24397,0 6.27683,9.5303 2.1361,0 -6.40829,-9.6617 c 1.68695,-0.3314 2.98778,-1.0571 3.90248,-2.1772 0.91467,-1.1201 1.37749,-2.4209 1.38846,-3.9025 z m -1.90605,0 c -0.01,1.4022 -0.45051,2.525 -1.32274,3.3685 -0.87225,0.8435 -2.1183,1.2762 -3.73816,1.2981 l -6.5726,0 0,-9.2674 6.5726,0 c 1.64861,0.013 2.90288,0.4225 3.76281,1.2283 0.8599,0.8058 1.2926,1.93 1.29809,3.3725 z"
         style="font-weight:normal;fill:#86888b;font-family:Knowledge Light;-inkscape-font-specification:Knowledge Light"
         id="path3025" />
      <path
         d="m 358.49849,1016.5772 c -0.0315,-1.8848 -0.71616,-3.2829 -2.05394,-4.1942 -1.33781,-0.9112 -3.1398,-1.6602 -5.40596,-2.247 -1.9848,-0.534 -3.46226,-1.1337 -4.4324,-1.7992 -0.97015,-0.6655 -1.45351,-1.6431 -1.45008,-2.933 0.0123,-1.4925 0.5217,-2.5496 1.52813,-3.1713 1.00642,-0.6217 2.43596,-0.9229 4.28862,-0.9037 1.15499,0.01 2.27096,0.1403 3.34792,0.3984 1.07693,0.2581 2.0861,0.5964 3.0275,1.0147 l 0.3615,-1.5446 c -0.87431,-0.4183 -1.878,-0.7565 -3.01108,-1.0146 -1.1331,-0.25813 -2.37504,-0.39096 -3.72584,-0.39851 -2.43392,-0.004 -4.31943,0.46421 -5.65654,1.40491 -1.33712,0.9407 -2.01492,2.3785 -2.0334,4.3133 -0.026,1.4548 0.51074,2.6858 1.61029,3.6929 1.09953,1.0072 2.91795,1.8356 5.45525,2.4853 2.10186,0.4991 3.6738,1.103 4.71584,1.8116 1.04202,0.7086 1.56235,1.7807 1.561,3.2164 -0.0288,1.4118 -0.56279,2.4661 -1.60207,3.1631 -1.03931,0.697 -2.41134,1.0448 -4.11609,1.0434 -1.21389,-0.01 -2.43393,-0.1629 -3.66012,-0.4601 -1.22621,-0.2971 -2.3723,-0.6805 -3.43829,-1.1502 l -0.46009,1.5446 c 1.13035,0.4696 2.34491,0.853 3.64369,1.1502 1.29877,0.2971 2.6037,0.4505 3.91481,0.4601 2.3579,-0.015 4.20645,-0.5354 5.54563,-1.561 1.33915,-1.0256 2.02106,-2.4661 2.04572,-4.3215 z"
         style="font-weight:normal;fill:#86888b;font-family:Knowledge Light;-inkscape-font-specification:Knowledge Light"
         id="path3027" />
      <path
         d="m 360.59476,1022.0653 1.87319,0 2.26755,-6.244 10.18753,0 2.30041,6.244 1.87319,0 -8.21575,-21.8868 -2.0375,0 z m 9.26737,-20.3751 4.50223,12.5208 -9.03733,0 z"
         style="font-weight:normal;fill:#86888b;font-family:Knowledge Light;-inkscape-font-specification:Knowledge Light"
         id="path3029" />
      <path
         d="m 382.65842,1022.0653 1.87319,0 0,-9.7603 10.84479,0 0,-1.6103 -10.84479,0 0,-8.9059 11.63351,0 0,-1.6103 -13.5067,0 z"
         style="font-weight:normal;fill:#86888b;font-family:Knowledge Light;-inkscape-font-specification:Knowledge Light"
         id="path3031" />
    </g>
    <text
       sodipodi:linespacing="125%"
       id="text3415"
       y="941.31573"
       x="224.40446"
       style="font-size:20.15815353px;font-style:normal;font-variant:normal;font-weight:bold;font-stretch:normal;text-align:start;line-height:125%;letter-spacing:0px;word-spacing:0px;writing-mode:lr-tb;text-anchor:start;fill:#86888b;fill-opacity:1;stroke:none;font-family:Knowledge Light;-inkscape-font-specification:Knowledge Light"
       xml:space="preserve"
       transform="scale(0.92567427,1.0802936)"><tspan
         style="font-style:normal;font-variant:normal;font-weight:normal;font-stretch:normal;fill:#86888b;fill-opacity:1;font-family:Knowledge Light;-inkscape-font-specification:Knowledge Light"
         y="941.31573"
         x="224.40446"
         id="tspan3417"
         sodipodi:role="line">|</tspan></text>
  </g>
</svg>
