<?xml version="1.0" encoding="UTF-8" standalone="no"?>
<!-- Created with Inkscape (http://www.inkscape.org/) -->
<svg id="svg2" xmlns:rdf="http://www.w3.org/1999/02/22-rdf-syntax-ns#" xmlns="http://www.w3.org/2000/svg" height="91" width="416" version="1.1" xmlns:cc="http://creativecommons.org/ns#" xmlns:xlink="http://www.w3.org/1999/xlink" xmlns:dc="http://purl.org/dc/elements/1.1/">
 <defs id="defs4">
  <clipPath id="clipPath3823" clipPathUnits="userSpaceOnUse">
   <path id="path3825" d="m0,323.36,817.01,0v-323.36h-817.01v323.36z"/>
  </clipPath>
  <linearGradient id="linearGradient3345" gradientUnits="userSpaceOnUse" gradientTransform="matrix(-13.318481,-7.1896057,-7.1896057,13.318481,465.53809,110.94043)">
   <stop id="stop3973" stop-color="#f59c00" offset="0"/>
   <stop id="stop3975" stop-color="#ec6608" offset="0.5"/>
   <stop id="stop3977" stop-color="#f59c00" offset="1"/>
  </linearGradient>
  <linearGradient id="linearGradient3347" gradientUnits="userSpaceOnUse" gradientTransform="matrix(-19.552154,5.7423553,5.7423553,19.552154,468.6543,104.47119)">
   <stop id="stop3995" stop-color="#f59c00" offset="0"/>
   <stop id="stop3997" stop-color="#ec6608" offset="0.5"/>
   <stop id="stop3999" stop-color="#f59c00" offset="1"/>
  </linearGradient>
  <linearGradient id="linearGradient3349" gradientUnits="userSpaceOnUse" gradientTransform="matrix(-19.166443,19.166443,19.166443,19.166443,468.46191,97.765625)">
   <stop id="stop4017" stop-color="#f59c00" offset="0"/>
   <stop id="stop4019" stop-color="#ec6608" offset="0.5"/>
   <stop id="stop4021" stop-color="#f59c00" offset="1"/>
  </linearGradient>
  <linearGradient id="linearGradient3351" gradientUnits="userSpaceOnUse" gradientTransform="matrix(-14.159729,32.826965,32.826965,14.159729,465.95801,90.932129)">
   <stop id="stop4039" stop-color="#f59c00" offset="0"/>
   <stop id="stop4041" stop-color="#ec6608" offset="0.5"/>
   <stop id="stop4043" stop-color="#f59c00" offset="1"/>
  </linearGradient>
  <linearGradient id="linearGradient3353" gradientUnits="userSpaceOnUse" gradientTransform="matrix(0,45.792969,45.792969,0,458.87695,84.448242)">
   <stop id="stop4061" stop-color="#f59c00" offset="0"/>
   <stop id="stop4063" stop-color="#ec6608" offset="0.5"/>
   <stop id="stop4065" stop-color="#f59c00" offset="1"/>
  </linearGradient>
 </defs>
 <metadata id="metadata7">
  <rdf:RDF>
   <cc:Work rdf:about="">
    <dc:format>image/svg+xml</dc:format>
    <dc:type rdf:resource="http://purl.org/dc/dcmitype/StillImage"/>
    <dc:title/>
   </cc:Work>
  </rdf:RDF>
 </metadata>
 <g id="g3250" transform="translate(0,-4.3636364)">
  <g id="g3819" transform="matrix(0.84438541,0,0,-0.84438541,-135.19702,144.9597)">
   <g id="g3821" clip-path="url(#clipPath3823)">
    <g id="g3827" transform="translate(304.0977,102.6406)">
     <path id="path3829" fill-rule="nonzero" fill="#000" d="m0,0,0,0.314c0,0.094-0.073,0.133-0.227,0.133h-0.881c-0.595,0-0.809,0.09-0.809,0.639v3.248h1.703c0.116,0,0.207,0.072,0.207,0.168v0.316c0,0.1-0.091,0.172-0.207,0.172h-1.703v0.983c0,0.099-0.076,0.183-0.178,0.183h-0.023l-0.536-0.078c-0.121-0.019-0.216-0.082-0.216-0.176v-4.816c0-1.014,0.59-1.305,1.612-1.305,0.389,0,0.834,0.031,1.044,0.059,0.166,0.014,0.214,0.074,0.214,0.16m-4.152,1.141c0,0.548-0.293,0.949-1.198,1.406l-1.082,0.551c-0.5,0.259-0.748,0.433-0.748,0.711,0,0.474,0.407,0.537,1.012,0.537,0.609,0,1.31-0.041,1.689-0.069h0.034c0.105,0,0.18,0.045,0.18,0.157v0.31c0,0.102-0.066,0.17-0.207,0.186-0.509,0.076-1.087,0.121-1.696,0.121-1.124,0-1.972-0.266-1.972-1.242,0-0.588,0.451-0.991,1.112-1.334l1.099-0.563c0.616-0.316,0.82-0.492,0.82-0.771,0-0.508-0.376-0.668-1.079-0.668-0.395,0-1.191,0.05-1.711,0.103h-0.041c-0.115,0-0.2-0.053-0.2-0.14v-0.325c0-0.101,0.085-0.16,0.23-0.183,0.531-0.108,1.318-0.147,1.722-0.147,1.212,0,2.036,0.403,2.036,1.36m-5.401-1.108,0,4.766c0,0.103-0.101,0.191-0.216,0.191h-0.525c-0.121,0-0.219-0.088-0.219-0.191v-4.766c0-0.099,0.098-0.189,0.219-0.189h0.525c0.115,0,0.216,0.09,0.216,0.189m0.022,5.963,0,0.744c0,0.104-0.098,0.192-0.218,0.192h-0.558c-0.121,0-0.216-0.088-0.216-0.192v-0.744c0-0.103,0.095-0.189,0.216-0.189h0.558c0.12,0,0.218,0.086,0.218,0.189m12.773-0.945,0-0.717c-0.928-0.012-1.442-0.549-1.442-1.504v-0.051h1.442v-0.623h-1.442v-0.115c0-1.018,0.527-1.514,1.442-1.564v-0.694c-1.204,0.037-2.401,0.584-2.401,2.307v0.658c0,1.32,0.855,2.299,2.401,2.303m-15.161-3.91c0,0.548-0.297,0.949-1.195,1.406l-1.083,0.551c-0.495,0.259-0.748,0.433-0.748,0.711,0,0.474,0.402,0.537,1.013,0.537,0.61,0,1.306-0.041,1.689-0.069h0.021c0.117,0,0.199,0.045,0.199,0.157v0.31c0,0.102-0.069,0.17-0.207,0.186-0.513,0.076-1.092,0.121-1.702,0.121-1.121,0-1.972-0.266-1.972-1.242,0-0.588,0.447-0.991,1.11-1.334l1.101-0.563c0.624-0.316,0.816-0.492,0.816-0.771,0-0.508-0.371-0.668-1.076-0.668-0.392,0-1.189,0.05-1.714,0.103h-0.041c-0.108,0-0.196-0.053-0.196-0.14v-0.325c0-0.101,0.088-0.16,0.23-0.183,0.532-0.108,1.317-0.147,1.721-0.147,1.217,0,2.034,0.403,2.034,1.36m26.065-1.108,0,3.385c0,0.965-0.632,1.633-1.939,1.633h-0.247c-0.657,0-1.089-0.092-1.422-0.336-0.335,0.264-0.754,0.336-1.411,0.336h-0.251c-1.308,0-1.937-0.668-1.937-1.633v-3.385c0-0.099,0.077-0.189,0.195-0.189h0.566c0.117,0,0.195,0.09,0.195,0.189v3.385c0,0.801,0.415,0.916,0.981,0.916h0.251c0.695,0,0.934-0.104,0.934-0.633v-3.668c0-0.099,0.08-0.189,0.196-0.189h0.568c0.119,0,0.196,0.09,0.196,0.189v3.668c0,0.529,0.239,0.633,0.939,0.633h0.247c0.574,0,0.981-0.115,0.981-0.916v-3.385c0-0.099,0.074-0.189,0.197-0.189h0.563c0.119,0,0.198,0.09,0.198,0.189m-10.904,2.123,0,0.623,1.444,0,0,0.051c0,0.998-0.469,1.504-1.422,1.504h-0.022v0.717h0.022c1.584,0,2.387-0.971,2.387-2.299v-0.391c0-0.125-0.075-0.205-0.205-0.205h-2.204zm0-2.373,0,0.694c0.045-0.318,0.095-0.318,0.149-0.318,0.629,0,1.357,0.064,1.859,0.131h0.054c0.089,0,0.173-0.036,0.173-0.131v-0.317c0-0.123-0.041-0.187-0.214-0.215-0.623-0.101-1.146-0.16-1.872-0.16-0.054,0-0.097,0-0.149,0.002m14.485,5.268,0-0.692c-1.016-0.025-1.342-0.644-1.342-1.611v-0.658c0-0.959,0.326-1.59,1.342-1.617v-0.692c-1.57,0.03-2.298,0.928-2.298,2.309v0.658c0,1.377,0.716,2.277,2.298,2.303m7.575-3.91c0,0.548-0.294,0.949-1.198,1.406l-1.076,0.551c-0.502,0.259-0.755,0.433-0.755,0.711,0,0.474,0.405,0.537,1.016,0.537,0.607,0,1.299-0.041,1.684-0.069h0.035c0.107,0,0.185,0.045,0.185,0.157v0.31c0,0.102-0.064,0.17-0.205,0.186-0.514,0.076-1.092,0.121-1.699,0.121-1.126,0-1.973-0.266-1.973-1.242,0-0.588,0.45-0.991,1.111-1.334l1.102-0.563c0.618-0.316,0.811-0.492,0.811-0.771,0-0.508-0.365-0.668-1.074-0.668-0.394,0-1.185,0.05-1.707,0.103h-0.046c-0.113,0-0.197-0.053-0.197-0.14v-0.325c0-0.101,0.084-0.16,0.229-0.183,0.536-0.108,1.314-0.147,1.721-0.147,1.22,0,2.036,0.403,2.036,1.36m-7.575-1.36,0,0.692,0.075,0c0.454,0,0.97,0.05,1.271,0.095v3.698c-0.294,0.047-0.817,0.093-1.271,0.093h-0.075v0.692h0.075c0.653,0,1.423-0.092,2.004-0.215,0.194-0.037,0.226-0.082,0.226-0.215v-4.406c0-0.123-0.032-0.182-0.226-0.215-0.581-0.125-1.34-0.219-2.004-0.219h-0.075z"/>
    </g>
    <g id="g3831" transform="translate(182.5781,114.3184)">
     <path id="path3833" fill-rule="evenodd" fill="#000" d="m0,0c-0.871,0.021-3.059,0.154-3.619,0.342-1.613,0.457-2.863,1.691-3.233,3.23-0.207,0.85-0.197,2.123,0,2.975,0.778,3.248,4.133,3.549,6.852,3.58v3.463c-0.186,0-0.365-0.004-0.547-0.004-2.392-0.02-3.392-0.117-4.605-0.297-3.116-0.471-5.596-2.68-6.379-5.494-0.16-0.59-0.283-1.356-0.315-1.865-0.095-1.102,0.022-2.547,0.315-3.604,0.787-2.818,3.263-5.025,6.379-5.492,1.3-0.191,2.359-0.297,5.152-0.297v3.463zm6.859,3.572c-0.359-1.539-1.463-2.773-3.08-3.23-0.634-0.201-2.9-0.344-3.566-0.346-0.059,0-0.133,0.002-0.213,0.004v-3.463h0.092,0.25c2.863,0,4.152,0.098,5.453,0.297,3.113,0.467,5.111,2.674,5.894,5.492,0.249,0.842,0.313,2.414,0.321,2.908l0.013,13.168c0,0.444-0.334,0.85-0.898,0.85h-3.184c-0.64,0-0.968-0.471-0.955-0.871l0.004-6.447c-2.07,1.545-4.746,1.66-6.99,1.656v-3.463l0.213,0.002c2.734-0.018,5.873-0.326,6.646-3.582,0.186-0.813,0.19-2.143,0-2.975"/>
    </g>
    <g id="g3835" transform="translate(210.3418,114.3672)">
     <path id="path3837" fill-rule="evenodd" fill="#000" d="M0,0-0.002,0c-0.652,0.006-3.211,0.148-3.828,0.354-1.609,0.466-2.856,1.716-3.221,3.283-0.215,0.869-0.23,1.865,0,2.738,0.43,1.568,1.612,2.818,3.221,3.279,0.617,0.209,3.176,0.354,3.828,0.36h0.002v3.509h-0.125c-2.855-0.002-3.934-0.103-5.23-0.302-3.106-0.475-5.584-2.719-6.366-5.576-0.47-1.717-0.47-3.565,0-5.28,0.785-2.851,3.258-5.099,6.366-5.574,1.296-0.197,2.375-0.303,5.23-0.303h0.125v3.512zm7.057,3.637c-0.371-1.567-1.606-2.817-3.223-3.283-0.629-0.206-3.166-0.354-3.832-0.354v-3.512h0.123c2.861,0,3.926,0.104,5.225,0.303,3.105,0.475,5.597,2.723,6.377,5.574,0.17,0.606,0.283,1.377,0.314,1.901,0.047,0.5,0.041,0.982,0,1.48-0.031,0.522-0.144,1.295-0.314,1.899-0.776,2.857-3.272,5.101-6.377,5.576-1.297,0.199-2.364,0.3-5.225,0.302h-0.123v-3.509c0.67-0.006,3.201-0.155,3.832-0.36,1.617-0.461,2.842-1.711,3.223-3.279,0.22-0.941,0.195-1.801,0-2.738"/>
    </g>
    <g id="g3839" transform="translate(258.8369,121.2031)">
     <path id="path3841" fill-rule="evenodd" fill="#000" d="m0,0c0.1,3.992-2.829,6.551-6.88,6.635h-4.935c-1.786,0-3.362-0.498-4.571-1.362-1.166,0.825-2.66,1.321-4.351,1.362h-4.946c-4.136,0.004-7.168-2.582-7.084-6.635v-9.416c0.002-0.377,0.295-0.877,0.875-0.877h3.241c0.619,0,0.925,0.475,0.941,0.877l0.004,9.357v0.01c0,1.012,0.16,3.104,3.926,3.104h0.924c3.773,0,3.931-2.092,3.931-3.106v-9.365c0.024-0.383,0.299-0.824,0.875-0.877h3.256c0.633,0.031,0.945,0.475,0.945,0.877l0.016,9.367c0,1.012,0.166,3.104,3.914,3.104h0.941c3.749,0,3.918-2.092,3.918-3.106l0.007-0.008,0.008-9.357c0-0.383,0.286-0.873,0.874-0.877h3.235c0.619-0.002,0.942,0.484,0.947,0.877l-0.011,9.416z"/>
    </g>
    <g id="g3843" transform="translate(265.7529,127.875)">
     <path id="path3845" fill-rule="evenodd" fill="#000" d="m0,0c-0.862-0.625-1.475-0.973-2.378-1.602-0.788-0.525-0.812-1.16-0.804-1.656v-12.83c-0.01-0.385,0.307-0.877,0.868-0.877h3.217c0.631,0,0.949,0.475,0.949,0.877v15.422c0,0.572-0.737,1.49-1.852,0.666"/>
    </g>
    <g id="g3847" transform="translate(267.5918,132.6895)">
     <path id="path3849" fill-rule="evenodd" fill="#32a9e0" d="m0,0c0.007,0.385-0.294,0.881-0.869,0.881h-3.213c-0.606-0.029-0.926-0.485-0.939-0.881v-3.688c0-0.57,0.742-1.492,1.859-0.662,0.862,0.621,1.47,0.965,2.371,1.594,0.804,0.568,0.798,1.205,0.804,1.901l-0.013,0.855z"/>
    </g>
    <g id="g3851" transform="translate(292.7793,121.2031)">
     <path id="path3853" fill-rule="evenodd" fill="#000" d="m0,0c0.086,3.992-2.879,6.551-6.964,6.635h-7.246c-4.197,0-7.265-2.582-7.172-6.635v-9.416c0.003-0.377,0.292-0.877,0.88-0.877h3.19c0.623,0,0.958,0.475,0.958,0.877l0.004,9.367c0,1.012,0.16,3.104,3.972,3.104h3.361c3.817,0,3.986-2.092,3.986-3.106l-0.003-9.365c0.019-0.383,0.303-0.879,0.888-0.877h3.206c0.622-0.002,0.92,0.484,0.935,0.877l0.005,9.416z"/>
    </g>
    <g id="g3855" transform="translate(301.5996,132.7012)">
     <path id="path3857" fill-rule="evenodd" fill="#000" d="m0,0c0,0.383-0.294,0.869-0.871,0.869h-3.221c-0.624,0-0.942-0.473-0.942-0.869v-2.742c0.011-0.385,0.283-0.869,0.876-0.869h3.226c0.62,0,0.932,0.47,0.932,0.869v2.742zm0-5.762c-0.007,0.453-0.294,0.891-0.858,0.899h-3.227c-0.625,0-0.938-0.483-0.938-0.883v-15.168c0.006-0.385,0.3-0.877,0.873-0.877h3.199c0.624,0.01,0.951,0.48,0.951,0.877v15.152z"/>
    </g>
    <g id="g3859" transform="translate(317.3262,114.3672)">
     <path id="path3861" fill-rule="evenodd" fill="#000" d="m0,0-0.006,0c-0.646,0.006-3.203,0.148-3.821,0.354-1.609,0.466-2.858,1.716-3.221,3.283-0.216,0.869-0.23,1.865,0,2.738,0.433,1.568,1.612,2.818,3.221,3.279,0.618,0.209,3.175,0.354,3.821,0.36h0.006v3.509h-0.121c-2.857-0.002-3.938-0.103-5.233-0.302-3.103-0.475-5.584-2.719-6.364-5.576-0.469-1.717-0.469-3.565,0-5.28,0.784-2.851,3.253-5.099,6.364-5.574,1.3-0.197,2.376-0.303,5.233-0.303h0.121v3.512zm7.063,3.637c-0.376-1.567-1.611-2.817-3.22-3.283-0.629-0.206-3.164-0.354-3.837-0.354v-3.512h0.128c2.861,0,3.918,0.104,5.222,0.303,3.103,0.475,5.595,2.723,6.378,5.574,0.164,0.606,0.285,1.377,0.317,1.901,0.043,0.5,0.035,0.982,0,1.48-0.032,0.522-0.153,1.295-0.317,1.899-0.772,2.857-3.277,5.101-6.378,5.576-1.299,0.199-2.363,0.3-5.222,0.302h-0.128v-3.509c0.673-0.006,3.201-0.155,3.837-0.36,1.612-0.461,2.837-1.711,3.22-3.279,0.222-0.941,0.199-1.801,0-2.738"/>
    </g>
    <g id="g3863" transform="translate(200.2559,93.6445)">
     <path id="path3865" fill-rule="nonzero" fill="#8e8e8d" d="M0,0,0.604,0,3.85-6.537,4.988,0,5.592,0,4.285-7.43h-0.601l-3.258,6.549-1.139-6.549h-0.592l1.305,7.43z"/>
    </g>
    <g id="g3867" transform="translate(210.4199,89.4395)">
     <path id="path3869" fill-rule="nonzero" fill="#8e8e8d" d="m0,0c0,0.848-0.324,1.664-1.383,1.664-1.361,0-1.986-1.541-1.986-2.826,0-0.846,0.346-1.684,1.351-1.684,1.305,0,2.018,1.44,2.018,2.846m-2.064-3.336c-1.295,0-1.909,1.037-1.909,2.188,0,1.55,0.836,3.302,2.657,3.302,1.337,0,1.92-0.937,1.92-2.109,0-1.641-0.915-3.381-2.668-3.381"/>
    </g>
    <g id="g3871" transform="translate(216.4785,86.9844)">
     <path id="path3873" fill-rule="nonzero" fill="#8e8e8d" d="m0,0,2.008,4.496,0.615,0-2.443-5.266-0.582,0-0.59,4.708-2.246-4.708-0.578,0-0.592,5.266,0.58,0,0.447-4.496,2.131,4.496,0.668,0l0.582-4.496z"/>
    </g>
    <g id="g3875" transform="translate(226.0156,89.5938)">
     <path id="path3877" fill-rule="nonzero" fill="#8e8e8d" d="m0,0c0,0.871-0.346,1.51-1.094,1.51-1.215,0-2.142-1.83-2.388-3.26l-0.123-0.715c0.38-0.287,0.849-0.535,1.474-0.535,1.496,0,2.131,1.607,2.131,3m-2.143-3.49c-0.644,0-1.248,0.281-1.55,0.523l-0.424-2.4h-0.604l1.274,7.254h0.603l-0.314-1.762c0.426,0.893,1.084,1.875,2.232,1.875,1.039,0,1.539-0.838,1.539-1.975,0-1.564-0.791-3.515-2.756-3.515"/>
    </g>
    <g id="g3879" transform="translate(228.125,88.0781)">
     <path id="path3881" fill-rule="nonzero" fill="#8e8e8d" d="m0,0c0-0.814,0.289-1.484,0.992-1.484,1.137,0,2.018,1.996,2.266,3.371l0.154,0.871c-0.344,0.144-0.713,0.267-1.248,0.267-1.529,0-2.164-1.541-2.164-3.025m2.217,3.516c0.74,0,1.431-0.213,1.865-0.436l-0.881-4.943h-0.592l0.325,1.863c-0.334-0.838-0.993-1.975-2.086-1.975-0.994,0-1.463,0.893-1.463,1.975,0,1.775,0.838,3.516,2.832,3.516"/>
    </g>
    <g id="g3883" transform="translate(235.9551,91.002)">
     <path id="path3885" fill-rule="nonzero" fill="#8e8e8d" d="m0,0c-1.148,0-1.742-1.662-1.963-2.98l-0.312-1.807h-0.604l0.916,5.266h0.602l-0.325-1.762c0.291,1.004,0.748,1.828,1.764,1.828,0.147,0,0.303-0.022,0.402-0.055l-0.089-0.545c-0.112,0.034-0.235,0.055-0.391,0.055"/>
    </g>
    <g id="g3887" transform="translate(237.875,86.123)">
     <path id="path3889" fill-rule="nonzero" fill="#8e8e8d" d="m0,0c-0.648,0-1.041,0.348-1.041,0.93,0,0.088,0.025,0.222,0.035,0.289l0.635,3.638h-0.768l0.098,0.5h0.76l0.248,1.409h0.611l-0.244-1.409h1.338l-0.09-0.5h-1.35l-0.634-3.627c-0.014-0.066-0.022-0.146-0.022-0.236,0-0.344,0.188-0.514,0.555-0.514,0.246,0,0.506,0.045,0.703,0.114l0.025-0.459c-0.168-0.067-0.57-0.135-0.859-0.135"/>
    </g>
    <g id="g3891" transform="translate(246.4082,89.4395)">
     <path id="path3893" fill-rule="nonzero" fill="#8e8e8d" d="m0,0c0,0.848-0.324,1.664-1.383,1.664-1.361,0-1.988-1.541-1.988-2.826,0-0.846,0.348-1.684,1.351-1.684,1.305,0,2.02,1.44,2.02,2.846m-2.063-3.336c-1.296,0-1.91,1.037-1.91,2.188,0,1.55,0.838,3.302,2.655,3.302,1.341,0,1.92-0.937,1.92-2.109,0-1.641-0.915-3.381-2.665-3.381"/>
    </g>
    <g id="g3895" transform="translate(251.3164,93.1328)">
     <path id="path3897" fill-rule="nonzero" fill="#8e8e8d" d="m0,0c-0.156,0.068-0.422,0.133-0.648,0.133-0.6,0-0.836-0.313-0.959-1.014l-0.122-0.771h1.159l-0.088-0.491h-1.172l-0.836-4.775h-0.604l0.836,4.775h-0.767l0.09,0.491h0.769l0.131,0.791c0.18,1.05,0.615,1.486,1.508,1.486,0.312,0,0.627-0.078,0.828-0.178l-0.125-0.447z"/>
    </g>
    <g id="g3899" transform="translate(256.3467,93.1094)">
     <path id="path3901" fill-rule="nonzero" fill="#8e8e8d" d="m0,0-1.214-6.895-0.625,0,1.217,6.895-2.289,0,0.101,0.535,5.179,0l-0.091-0.535h-2.278z"/>
    </g>
    <g id="g3903" transform="translate(261.9941,86.2148)">
     <path id="path3905" fill-rule="nonzero" fill="#8e8e8d" d="m0,0,0.623,3.582c0.023,0.111,0.034,0.246,0.034,0.369,0,0.623-0.367,0.903-0.916,0.903-1.047,0-2.006-1.262-2.308-3l-0.325-1.854h-0.602l1.307,7.43h0.601l-0.679-3.871c0.435,1.039,1.137,1.82,2.242,1.82,0.791,0,1.305-0.457,1.305-1.307,0-0.101-0.011-0.234-0.033-0.426l-0.648-3.646h-0.601z"/>
    </g>
    <g id="g3907" transform="translate(268.3525,89.4395)">
     <path id="path3909" fill-rule="nonzero" fill="#8e8e8d" d="m0,0c0,0.848-0.322,1.664-1.383,1.664-1.364,0-1.986-1.541-1.986-2.826,0-0.846,0.346-1.684,1.348-1.684,1.308,0,2.021,1.44,2.021,2.846m-2.063-3.336c-1.297,0-1.912,1.037-1.912,2.188,0,1.55,0.839,3.302,2.659,3.302,1.337,0,1.92-0.937,1.92-2.109,0-1.641-0.917-3.381-2.667-3.381"/>
    </g>
    <g id="g3911" transform="translate(273.1699,86.2148)">
     <path id="path3913" fill-rule="nonzero" fill="#8e8e8d" d="m0,0,0.627,3.582c0.021,0.1,0.032,0.246,0.032,0.369,0,0.623-0.367,0.903-0.914,0.903-0.981,0-1.852-1.241-2.154-2.936l-0.335-1.918h-0.602l0.914,5.266h0.591l-0.301-1.762c0.392,1.049,1.027,1.875,2.122,1.875,0.791,0,1.304-0.481,1.304-1.307,0-0.088-0.011-0.244-0.032-0.4,0.445,1.004,1.05,1.707,2.074,1.707,0.791,0,1.306-0.481,1.306-1.307,0-0.101-0.011-0.289-0.032-0.426l-0.647-3.646h-0.602l0.624,3.582c0.01,0.064,0.032,0.234,0.032,0.369,0,0.578-0.302,0.903-0.882,0.903-1.026,0-1.906-1.327-2.185-2.936l-0.335-1.918h-0.605z"/>
    </g>
    <g id="g3915" transform="translate(280.4561,86.1035)">
     <path id="path3917" fill-rule="nonzero" fill="#8e8e8d" d="m0,0c-0.659,0-1.327,0.176-1.887,0.424l0.158,0.457c0.557-0.256,1.147-0.424,1.729-0.424,0.791,0,1.271,0.313,1.271,0.994,0,0.524-0.489,0.779-1.092,1.092-0.906,0.469-1.474,0.793-1.474,1.529,0,0.893,0.691,1.418,1.863,1.418,0.66,0,1.241-0.146,1.742-0.424l-0.156-0.459c-0.458,0.247-1.015,0.426-1.564,0.426-0.725,0-1.293-0.269-1.293-0.904,0-0.561,0.48-0.705,1.126-1.072,0.648-0.369,1.439-0.68,1.439-1.506,0-0.938-0.723-1.551-1.862-1.551"/>
    </g>
    <g id="g3919" transform="translate(287.3633,89.4395)">
     <path id="path3921" fill-rule="nonzero" fill="#8e8e8d" d="m0,0c0,0.848-0.324,1.664-1.386,1.664-1.359,0-1.986-1.541-1.986-2.826,0-0.846,0.346-1.684,1.351-1.684,1.305,0,2.021,1.44,2.021,2.846m-2.066-3.336c-1.295,0-1.909,1.037-1.909,2.188,0,1.55,0.836,3.302,2.657,3.302,1.339,0,1.919-0.937,1.919-2.109,0-1.641-0.916-3.381-2.667-3.381"/>
    </g>
    <g id="g3923" transform="translate(292.3252,86.2148)">
     <path id="path3925" fill-rule="nonzero" fill="#8e8e8d" d="m0,0,0.625,3.582c0.023,0.1,0.034,0.246,0.034,0.369,0,0.623-0.369,0.903-0.916,0.903-1.059,0-2.008-1.272-2.308-2.991l-0.325-1.863h-0.602l0.916,5.266h0.59l-0.3-1.762c0.412,1.049,1.115,1.875,2.263,1.875,0.794,0,1.307-0.457,1.307-1.307,0-0.101-0.011-0.289-0.033-0.426l-0.647-3.646h-0.604z"/>
    </g>
    <g id="g3927" transform="translate(300.6025,89.9746)">
     <path id="path3929" fill-rule="nonzero" fill="#8e8e8d" d="m0,0c1.161,0,2.011,0.748,2.011,1.818,0,0.76-0.481,1.34-1.451,1.34h-2.176l-0.56-3.158h2.176zm-2.142,3.67,2.812,0c1.316,0,1.965-0.779,1.965-1.795,0-1.248-0.927-2.164-2.165-2.355l1.559-3.28h-0.667l-1.507,3.246h-2.12l-0.557-3.246h-0.625l1.305,7.43z"/>
    </g>
    <g id="g3931" transform="translate(304.4502,89.0371)">
     <path id="path3933" fill-rule="nonzero" fill="#8e8e8d" d="M0,0c1.397,0.023,3.025,0.334,3.025,1.396,0,0.458-0.402,0.711-0.903,0.711-1.172,0-1.876-1.025-2.122-2.107m-0.089-0.48c-0.011-0.145-0.021-0.288-0.021-0.436,0-0.961,0.412-1.549,1.473-1.549,0.491,0,1.003,0.156,1.392,0.356l0.139-0.424c-0.362-0.211-1.018-0.401-1.622-0.401-1.302,0-1.961,0.881-1.961,2.055,0,1.615,0.957,3.436,2.854,3.436,0.837,0,1.439-0.424,1.439-1.129,0-1.461-2.085-1.842-3.693-1.908"/>
    </g>
    <g id="g3935" transform="translate(310.041,91.4805)">
     <path id="path3937" fill-rule="nonzero" fill="#8e8e8d" d="m0,0-0.638-3.57c-0.021-0.131-0.032-0.235-0.032-0.379,0-0.625,0.233-0.905,0.836-0.905,1.14,0,2.066,1.495,2.356,3.147l0.3,1.707h0.616l-0.929-5.266h-0.588l0.299,1.762c-0.435-1.002-1.158-1.873-2.252-1.873-0.761,0-1.252,0.469-1.252,1.307,0,0.154,0.013,0.291,0.035,0.433l0.635,3.637h0.614z"/>
    </g>
    <g id="g3939" transform="translate(315.7529,86.123)">
     <path id="path3941" fill-rule="nonzero" fill="#8e8e8d" d="m0,0c-0.648,0-1.037,0.348-1.037,0.93,0,0.088,0.021,0.222,0.032,0.289l0.638,3.638h-0.772l0.102,0.5h0.759l0.246,1.409h0.611l-0.244-1.409h1.34l-0.091-0.5h-1.351l-0.634-3.627c-0.011-0.066-0.025-0.146-0.025-0.236,0-0.344,0.193-0.514,0.56-0.514,0.245,0,0.502,0.045,0.703,0.114l0.021-0.459c-0.167-0.067-0.568-0.135-0.858-0.135"/>
    </g>
    <g id="g3943" transform="translate(318.375,89.0371)">
     <path id="path3945" fill-rule="nonzero" fill="#8e8e8d" d="M0,0c1.394,0.023,3.023,0.334,3.023,1.396,0,0.458-0.402,0.711-0.905,0.711-1.172,0-1.874-1.025-2.118-2.107m-0.089-0.48c-0.013-0.145-0.023-0.288-0.023-0.436,0-0.961,0.412-1.549,1.471-1.549,0.493,0,1.005,0.156,1.394,0.356l0.137-0.424c-0.357-0.211-1.017-0.401-1.619-0.401-1.303,0-1.962,0.881-1.962,2.055,0,1.615,0.959,3.436,2.856,3.436,0.835,0,1.438-0.424,1.438-1.129,0-1.461-2.086-1.842-3.692-1.908"/>
    </g>
    <g id="g3947" transform="translate(325.3682,91.002)">
     <path id="path3949" fill-rule="nonzero" fill="#8e8e8d" d="m0,0c-1.147,0-1.741-1.662-1.962-2.98l-0.313-1.807h-0.603l0.916,5.266h0.601l-0.325-1.762c0.292,1.004,0.75,1.828,1.766,1.828,0.143,0,0.301-0.022,0.4-0.055l-0.088-0.545c-0.111,0.034-0.234,0.055-0.392,0.055"/>
    </g>
    <g id="g3951" transform="translate(327.4775,86.1035)">
     <path id="path3953" fill-rule="nonzero" fill="#8e8e8d" d="m0,0c-0.659,0-1.329,0.176-1.887,0.424l0.158,0.457c0.556-0.256,1.148-0.424,1.729-0.424,0.794,0,1.271,0.313,1.271,0.994,0,0.524-0.491,0.779-1.093,1.092-0.904,0.469-1.472,0.793-1.472,1.529,0,0.893,0.691,1.418,1.862,1.418,0.66,0,1.24-0.146,1.741-0.424l-0.156-0.459c-0.459,0.247-1.015,0.426-1.562,0.426-0.725,0-1.295-0.269-1.295-0.904,0-0.561,0.479-0.705,1.128-1.072,0.646-0.369,1.439-0.68,1.439-1.506,0-0.938-0.725-1.551-1.863-1.551"/>
    </g>
    <g id="g3955" transform="translate(615.5215,105.0791)">
     <path id="path3957" fill-rule="nonzero" fill="#86888a" d="m0,0c0-1.201,0.048-1.23,1.133-1.23h3.625c0.156,0,0.287-0.129,0.287-0.288v-0.912c0-0.203-0.073-0.275-0.287-0.304-0.459-0.077-1.389-0.198-3.092-0.198-2.385,0-3.643-0.019-3.643,2.932v4.535c0,2.951,1.258,2.932,3.643,2.932,1.703,0,2.633-0.131,3.092-0.199,0.214-0.026,0.287-0.102,0.287-0.303v-0.914c0-0.158-0.131-0.289-0.287-0.289h-3.625c-1.085,0-1.133-0.03-1.133-1.227v-1.314h4.588c0.159,0,0.285-0.131,0.285-0.287v-1.036c0-0.154-0.126-0.285-0.285-0.285h-4.588v-1.613zm21.182-2.939c-1.262,0-2.55,0.216-3.233,0.376-0.145,0.03-0.277,0.129-0.277,0.284v1.029c0,0.158,0.132,0.279,0.277,0.279h0.024c0.576-0.076,1.914-0.259,3.24-0.259,1.271,0,1.664,0.455,1.664,1.283,0,1.076-2.564,1.666-3.82,2.185-1.244,0.514-1.68,1.502-1.68,2.504,0,1.574,1.266,2.721,3.926,2.721,1.368,0,2.615-0.256,3.101-0.377,0.147-0.027,0.26-0.129,0.26-0.272v-1.058c0-0.145-0.102-0.258-0.244-0.258h-0.024c-0.951,0.084-1.93,0.264-3.173,0.264-1.063,0-1.858-0.377-1.858-1.02,0-0.472,0.538-0.906,1.176-1.16,0.636-0.248,1.465-0.574,2.422-0.959,1.203-0.486,1.985-1.195,1.985-2.57,0-1.446-0.899-2.992-3.766-2.992m-7.614,7.169c0,1.073-0.834,1.532-2.267,1.532-0.3,0-1.603-0.028-1.864-0.055v-3.103c0.236-0.02,1.622-0.045,1.864-0.045,1.482,0,2.267,0.283,2.267,1.545v0.126zm2.149-7.05-1.747,0c-0.158,0-0.214,0.146-0.286,0.287l-2.065,3.472h-0.318c-0.371,0-1.529,0.041-1.864,0.057v-3.529c0-0.158-0.113-0.287-0.267-0.287h-1.43c-0.16,0-0.285,0.129-0.285,0.287v9.383c0,0.287,0.164,0.392,0.455,0.429,0.746,0.116,2.348,0.188,3.391,0.188,2.206,0,4.24-0.787,4.24-3.237v-0.126c0-1.52-0.758-2.348-1.93-2.805l2.248-3.832c0.032-0.043,0.032-0.084,0.032-0.115,0-0.1-0.06-0.172-0.174-0.172m-19.453,8.515-2.856,0,0-8.228c0-0.158-0.128-0.287-0.287-0.287h-1.419c-0.156,0-0.288,0.129-0.288,0.287v8.228h-2.857c-0.153,0-0.284,0.098-0.284,0.254v1.133c0,0.16,0.131,0.272,0.284,0.272h7.707c0.156,0,0.287-0.112,0.287-0.272v-1.133c0-0.156-0.131-0.254-0.287-0.254m-13.707-8.627c-2.302,0-4.287,1-4.287,4.051v5.963c0,0.16,0.13,0.272,0.283,0.272h1.42c0.16,0,0.287-0.112,0.287-0.272v-5.963c0-1.629,0.752-2.408,2.297-2.408,1.548,0,2.302,0.779,2.302,2.408v5.963c0,0.16,0.127,0.272,0.287,0.272h1.415c0.162,0,0.291-0.112,0.291-0.272v-5.963c0-3.051-1.987-4.051-4.295-4.051m-11.469,2.932c0-1.201,0.043-1.23,1.126-1.23h3.628c0.157,0,0.286-0.129,0.286-0.288v-0.912c0-0.203-0.07-0.275-0.286-0.304-0.461-0.077-1.394-0.198-3.096-0.198-2.379,0-3.637-0.019-3.637,2.932v4.535c0,2.951,1.258,2.932,3.637,2.932,1.702,0,2.635-0.131,3.096-0.199,0.216-0.026,0.286-0.102,0.286-0.303v-0.914c0-0.158-0.129-0.289-0.286-0.289h-3.628c-1.083,0-1.126-0.03-1.126-1.227v-1.314h4.583c0.157,0,0.286-0.131,0.286-0.287v-1.036c0-0.154-0.129-0.285-0.286-0.285h-4.583v-1.613zm-6.14,4.23c0,1.073-0.835,1.532-2.266,1.532-0.303,0-1.608-0.028-1.86-0.055v-3.103c0.229-0.02,1.614-0.045,1.86-0.045,1.473,0,2.266,0.283,2.266,1.545v0.126zm2.148-7.05-1.75,0c-0.156,0-0.213,0.146-0.284,0.287l-2.064,3.472h-0.316c-0.373,0-1.534,0.041-1.86,0.057v-3.529c0-0.158-0.116-0.287-0.274-0.287h-1.429c-0.156,0-0.288,0.129-0.288,0.287v9.383c0,0.287,0.171,0.392,0.458,0.429,0.744,0.116,2.347,0.188,3.393,0.188,2.205,0,4.24-0.787,4.24-3.237v-0.126c0-1.52-0.762-2.348-1.928-2.805l2.244-3.832c0.032-0.043,0.032-0.084,0.032-0.115,0-0.1-0.059-0.172-0.174-0.172m-27.826,5.82c0,1.893-1.144,2.734-2.548,2.734-1.403,0-2.542-0.841-2.542-2.734v-1.467c0-1.89,1.139-2.734,2.542-2.734,1.404,0,2.548,0.844,2.548,2.734v1.467zm-2.548-5.932c-2.36,0-4.546,1.315-4.546,4.465v1.467c0,3.15,2.186,4.467,4.546,4.467,2.366,0,4.549-1.317,4.549-4.467v-1.467c0-3.15-2.183-4.465-4.549-4.465m-10.12-0.007c-1.265,0-2.551,0.216-3.24,0.376-0.141,0.03-0.27,0.129-0.27,0.284v1.029c0,0.158,0.129,0.279,0.27,0.279h0.033c0.57-0.076,1.908-0.259,3.232-0.259,1.277,0,1.664,0.455,1.664,1.283,0,1.076-2.56,1.666-3.811,2.185-1.25,0.514-1.69,1.502-1.69,2.504,0,1.574,1.269,2.721,3.931,2.721,1.367,0,2.617-0.256,3.103-0.377,0.145-0.027,0.256-0.129,0.256-0.272v-1.058c0-0.145-0.099-0.258-0.24-0.258h-0.031c-0.946,0.084-1.926,0.264-3.17,0.264-1.059,0-1.858-0.377-1.858-1.02,0-0.472,0.539-0.906,1.172-1.16,0.635-0.248,1.475-0.574,2.426-0.959,1.209-0.486,1.991-1.195,1.991-2.57,0-1.446-0.899-2.992-3.768-2.992m25.07,0.119-1.449,0c-0.342,0-0.646,0-0.871,0.517l-3.885,6.502c-0.04,0.092-0.086,0.123-0.13,0.123-0.038,0-0.068-0.031-0.068-0.123v-6.732c0-0.158-0.115-0.287-0.276-0.287h-1.215c-0.161,0-0.286,0.129-0.286,0.287v9.314c0,0.317,0.258,0.573,0.57,0.573h1.549c0.299,0,0.455-0.086,0.631-0.458l4.04-6.896c0.027-0.068,0.07-0.113,0.114-0.113,0.028,0,0.072,0.045,0.072,0.134v7.061c0,0.16,0.112,0.272,0.271,0.272h1.23c0.16,0,0.277-0.112,0.277-0.272v-9.33c0-0.315-0.262-0.572-0.574-0.572m-31.457,0-1.448,0c-0.127,0-0.23,0.146-0.23,0.287v6.191c0,0.102-0.014,0.143-0.043,0.143-0.012,0-0.043-0.041-0.073-0.084l-2.309-5.123c-0.087-0.153-0.273-0.239-0.457-0.239h-0.745c-0.185,0-0.377,0.086-0.458,0.239l-2.33,5.123c-0.029,0.043-0.058,0.084-0.069,0.084-0.026,0-0.043-0.041-0.043-0.143v-6.191c0-0.141-0.098-0.287-0.229-0.287h-1.447c-0.131,0-0.246,0.072-0.246,0.216v9.385c0,0.317,0.26,0.573,0.575,0.573h1.173c0.228,0,0.432-0.145,0.531-0.346l2.75-5.594c0.067-0.127,0.098-0.195,0.16-0.195,0.055,0,0.08,0.068,0.155,0.195l2.746,5.594c0.104,0.201,0.304,0.346,0.533,0.346h1.172c0.316,0,0.574-0.256,0.574-0.573v-9.385c0-0.144-0.113-0.216-0.242-0.216m-14.348,5.82c0,1.893-1.142,2.734-2.55,2.734-1.399,0-2.542-0.841-2.542-2.734v-1.467c0-1.89,1.143-2.734,2.542-2.734,1.408,0,2.55,0.844,2.55,2.734v1.467zm-2.55-5.932c-2.359,0-4.549,1.315-4.549,4.465v1.467c0,3.15,2.19,4.467,4.549,4.467,2.369,0,4.556-1.317,4.556-4.467v-1.467c0-3.15-2.187-4.465-4.556-4.465m-7.094,0.112-1.414,0c-0.162,0-0.291,0.129-0.291,0.287v4.146h-4.536v-4.146c0-0.158-0.13-0.287-0.283-0.287h-1.42c-0.158,0-0.285,0.129-0.285,0.287v9.615c0,0.16,0.127,0.272,0.285,0.272h1.42c0.153,0,0.283-0.112,0.283-0.272v-3.721h4.536v3.721c0,0.16,0.129,0.272,0.291,0.272h1.414c0.156,0,0.285-0.112,0.285-0.272v-9.615c0-0.158-0.129-0.287-0.285-0.287m-10.331,8.515-2.862,0,0-8.228c0-0.158-0.126-0.287-0.287-0.287h-1.417c-0.154,0-0.285,0.129-0.285,0.287v8.228h-2.86c-0.158,0-0.286,0.098-0.286,0.254v1.133c0,0.16,0.128,0.272,0.286,0.272h7.711c0.155,0,0.284-0.112,0.284-0.272v-1.133c0-0.156-0.129-0.254-0.284-0.254"/>
    </g>
   </g>
  </g>
  <g id="g3959" transform="matrix(0.84438541,0,0,-0.84438541,-135.19702,144.9597)">
   <g id="g3961">
    <g id="g3967">
     <g id="g3969">
      <path id="path3979" fill="url(#linearGradient3345)" d="m457.2,115.08c-0.408-0.223-0.556-0.738-0.339-1.144,0.217-0.414,0.735-0.563,1.15-0.344,0.405,0.222,0.551,0.736,0.336,1.148-0.15,0.279-0.444,0.441-0.747,0.441-0.136,0-0.273-0.033-0.4-0.101m2.27-0.035c-0.366-0.199-0.496-0.65-0.303-1.017,0.191-0.364,0.647-0.501,1.007-0.301,0.372,0.199,0.504,0.652,0.311,1.017-0.134,0.249-0.392,0.393-0.658,0.393-0.121,0-0.243-0.03-0.357-0.092m-4.421-0.607c-0.46-0.25-0.638-0.831-0.382-1.29,0.252-0.464,0.829-0.646,1.297-0.392,0.465,0.252,0.634,0.832,0.384,1.291-0.169,0.324-0.499,0.508-0.841,0.508-0.155,0-0.312-0.037-0.458-0.117m6.597-0.108c-0.321-0.175-0.444-0.576-0.274-0.888,0.172-0.322,0.582-0.44,0.887-0.266,0.326,0.174,0.443,0.568,0.272,0.887-0.116,0.222-0.344,0.345-0.577,0.345-0.105,0-0.211-0.025-0.308-0.078m-8.303-1.334c-0.416-0.228-0.568-0.732-0.341-1.148,0.22-0.409,0.727-0.564,1.133-0.339,0.421,0.224,0.57,0.735,0.35,1.143-0.15,0.281-0.444,0.446-0.746,0.446-0.134,0-0.27-0.033-0.396-0.102m10.174-0.008c-0.278-0.156-0.377-0.494-0.233-0.769,0.147-0.269,0.487-0.368,0.768-0.233,0.27,0.159,0.377,0.498,0.228,0.774-0.105,0.187-0.3,0.296-0.499,0.296-0.09,0-0.18-0.021-0.264-0.068m1.382-1.846c-0.218-0.129-0.308-0.417-0.178-0.644,0.12-0.226,0.403-0.306,0.628-0.186,0.227,0.122,0.314,0.401,0.189,0.63-0.086,0.162-0.248,0.252-0.419,0.252-0.073,0-0.148-0.017-0.22-0.052m-12.772-0.06c-0.364-0.201-0.501-0.653-0.31-1.017,0.203-0.36,0.657-0.502,1.018-0.302,0.365,0.192,0.502,0.651,0.309,1.017-0.138,0.25-0.397,0.391-0.663,0.391-0.12,0-0.242-0.029-0.354-0.089m13.475-1.959c-0.274-0.146-0.379-0.49-0.229-0.767,0.145-0.266,0.493-0.367,0.755-0.231,0.277,0.161,0.381,0.504,0.238,0.772-0.104,0.19-0.298,0.296-0.496,0.296-0.091,0-0.183-0.022-0.268-0.07m-14.072-0.254c-0.316-0.172-0.431-0.568-0.266-0.888,0.18-0.319,0.575-0.436,0.894-0.262,0.316,0.171,0.438,0.572,0.267,0.884-0.12,0.222-0.345,0.347-0.579,0.347-0.107,0-0.215-0.026-0.316-0.081m14.08-1.88c-0.321-0.179-0.437-0.573-0.271-0.897,0.169-0.316,0.582-0.432,0.893-0.26,0.32,0.172,0.435,0.573,0.261,0.887-0.116,0.222-0.341,0.345-0.575,0.345-0.104,0-0.209-0.024-0.308-0.075m-13.984-0.421c-0.272-0.148-0.373-0.494-0.225-0.766,0.15-0.28,0.493-0.374,0.76-0.218,0.275,0.135,0.383,0.487,0.227,0.759-0.105,0.186-0.296,0.293-0.495,0.293-0.09,0-0.181-0.022-0.267-0.068m13.303-1.622c-0.37-0.196-0.5-0.663-0.311-1.028,0.203-0.356,0.656-0.492,1.014-0.297,0.374,0.197,0.504,0.652,0.316,1.016-0.141,0.251-0.403,0.395-0.671,0.395-0.118,0-0.237-0.028-0.348-0.086m-12.518-0.554c-0.232-0.119-0.312-0.404-0.189-0.644,0.122-0.221,0.406-0.311,0.64-0.186,0.227,0.127,0.309,0.413,0.186,0.635-0.088,0.157-0.254,0.251-0.423,0.251-0.073,0-0.146-0.018-0.214-0.056m11.21-1.199c-0.409-0.22-0.559-0.732-0.34-1.143,0.216-0.409,0.727-0.562,1.141-0.337,0.41,0.213,0.561,0.733,0.341,1.14-0.157,0.282-0.445,0.444-0.743,0.444-0.135,0-0.271-0.033-0.399-0.104m-9.903-0.486c-0.275-0.144-0.381-0.492-0.231-0.76,0.144-0.277,0.481-0.374,0.76-0.226,0.27,0.14,0.374,0.484,0.229,0.76-0.101,0.185-0.296,0.291-0.496,0.291-0.089,0-0.179-0.02-0.262-0.065m8.082-0.762c-0.467-0.247-0.644-0.83-0.389-1.294,0.256-0.465,0.834-0.637,1.299-0.389,0.464,0.258,0.632,0.835,0.385,1.292-0.174,0.322-0.505,0.507-0.845,0.507-0.153,0-0.307-0.037-0.45-0.116m-6.301-0.421c-0.322-0.175-0.44-0.567-0.264-0.888,0.164-0.315,0.566-0.435,0.88-0.267,0.323,0.176,0.442,0.581,0.27,0.897-0.119,0.214-0.344,0.341-0.575,0.341-0.105,0-0.212-0.026-0.311-0.083m4.256-0.412c-0.414-0.224-0.554-0.733-0.33-1.149,0.21-0.41,0.722-0.565,1.133-0.338,0.414,0.22,0.56,0.734,0.344,1.141-0.154,0.286-0.445,0.445-0.746,0.445-0.135,0-0.273-0.032-0.401-0.099m-2.18-0.135c-0.362-0.197-0.492-0.656-0.3-1.016,0.198-0.369,0.658-0.502,1.019-0.306,0.37,0.193,0.502,0.654,0.306,1.021-0.134,0.249-0.395,0.389-0.665,0.389-0.122,0-0.245-0.029-0.36-0.088"/>
     </g>
    </g>
   </g>
  </g>
  <g id="g3981" transform="matrix(0.84438541,0,0,-0.84438541,-135.19702,144.9597)">
   <g id="g3983">
    <g id="g3989">
     <g id="g3991">
      <path id="path4001" fill="url(#linearGradient3347)" d="m457.58,117.38c-0.167-0.562,0.154-1.155,0.723-1.33,0.57-0.168,1.164,0.166,1.33,0.728,0.172,0.565-0.152,1.165-0.721,1.329-0.103,0.03-0.207,0.045-0.309,0.045-0.465,0-0.887-0.303-1.023-0.772m2.869-0.344c-0.19-0.656,0.172-1.332,0.835-1.529,0.654-0.198,1.335,0.179,1.524,0.826,0.2,0.66-0.175,1.346-0.828,1.539-0.115,0.033-0.231,0.049-0.345,0.049-0.537,0-1.029-0.347-1.186-0.885m-5.752-0.25c-0.146-0.506,0.144-1.033,0.65-1.183,0.504-0.149,1.033,0.137,1.182,0.644,0.144,0.506-0.149,1.033-0.644,1.184-0.091,0.026-0.182,0.038-0.271,0.038-0.414,0-0.791-0.268-0.917-0.683m8.66-1.1c-0.171-0.567,0.157-1.161,0.723-1.33,0.569-0.172,1.166,0.162,1.332,0.731,0.169,0.561-0.154,1.158-0.723,1.327-0.1,0.029-0.202,0.043-0.301,0.043-0.467,0-0.892-0.308-1.031-0.771m-11.135-0.417c-0.118-0.402,0.109-0.816,0.506-0.932,0.395-0.119,0.815,0.111,0.935,0.508,0.113,0.399-0.114,0.814-0.514,0.931-0.072,0.022-0.144,0.032-0.215,0.032-0.324,0-0.62-0.217-0.712-0.539m13.463-1.707c-0.152-0.512,0.141-1.039,0.642-1.188,0.503-0.144,1.033,0.149,1.183,0.65,0.152,0.502-0.135,1.032-0.644,1.18-0.089,0.026-0.179,0.038-0.267,0.038-0.411,0-0.791-0.267-0.914-0.68m-15.424-0.55c-0.097-0.315,0.089-0.654,0.411-0.747,0.322-0.096,0.657,0.09,0.752,0.408,0.102,0.324-0.086,0.658-0.407,0.758-0.054,0.014-0.108,0.021-0.162,0.021-0.266,0-0.513-0.169-0.594-0.44m17.075-2.181c-0.125-0.404,0.113-0.82,0.509-0.933,0.402-0.119,0.814,0.111,0.933,0.505,0.114,0.397-0.108,0.815-0.51,0.928-0.071,0.022-0.142,0.032-0.213,0.032-0.323,0-0.627-0.212-0.719-0.532m-18.228-0.611c-0.071-0.244,0.062-0.498,0.303-0.566,0.241-0.077,0.491,0.068,0.567,0.308,0.071,0.24-0.068,0.492-0.311,0.565-0.042,0.012-0.084,0.017-0.125,0.017-0.196,0-0.377-0.128-0.434-0.324m18.932-2.426c-0.098-0.318,0.084-0.66,0.409-0.754,0.325-0.095,0.659,0.088,0.758,0.414,0.092,0.317-0.088,0.658-0.415,0.75-0.057,0.016-0.114,0.024-0.171,0.024-0.263,0-0.509-0.172-0.581-0.434m-19.475-0.552c-0.098-0.323,0.094-0.657,0.414-0.753,0.318-0.1,0.656,0.089,0.75,0.411,0.098,0.32-0.084,0.656-0.409,0.756-0.056,0.016-0.111,0.023-0.167,0.023-0.263,0-0.506-0.173-0.588-0.437m19.226-2.51c-0.062-0.244,0.066-0.498,0.308-0.565,0.242-0.07,0.491,0.062,0.56,0.309,0.073,0.24-0.061,0.49-0.306,0.564-0.039,0.011-0.079,0.016-0.119,0.016-0.196,0-0.383-0.126-0.443-0.324m-18.793-0.448c-0.114-0.398,0.1-0.814,0.509-0.929,0.393-0.124,0.807,0.111,0.926,0.509,0.118,0.399-0.111,0.814-0.506,0.926-0.072,0.021-0.145,0.031-0.216,0.031-0.328,0-0.623-0.208-0.713-0.537m17.346-2.265c-0.096-0.32,0.09-0.659,0.406-0.752,0.328-0.094,0.666,0.093,0.76,0.41,0.093,0.319-0.094,0.658-0.412,0.754-0.056,0.017-0.113,0.025-0.169,0.025-0.263,0-0.51-0.175-0.585-0.437m-16.087-0.35c-0.148-0.504,0.136-1.033,0.644-1.184,0.513-0.15,1.036,0.141,1.188,0.645,0.15,0.502-0.145,1.035-0.65,1.188-0.089,0.026-0.178,0.038-0.266,0.038-0.412,0-0.788-0.272-0.916-0.687m13.854-1.82c-0.12-0.4,0.115-0.813,0.51-0.932,0.394-0.117,0.808,0.108,0.93,0.504,0.117,0.402-0.109,0.816-0.505,0.931-0.073,0.022-0.146,0.033-0.217,0.033-0.326,0-0.621-0.218-0.718-0.536m-11.72-0.274c-0.165-0.562,0.152-1.16,0.723-1.327,0.572-0.165,1.166,0.164,1.334,0.726,0.168,0.564-0.158,1.166-0.73,1.332-0.101,0.029-0.202,0.043-0.301,0.043-0.464,0-0.889-0.302-1.026-0.774m2.601-1.253c-0.189-0.658,0.177-1.336,0.837-1.533,0.651-0.186,1.34,0.189,1.524,0.832,0.192,0.657-0.176,1.341-0.834,1.535-0.116,0.033-0.232,0.049-0.347,0.049-0.534,0-1.026-0.346-1.18-0.883m6.279,0.09c-0.147-0.508,0.148-1.034,0.649-1.18,0.509-0.149,1.034,0.135,1.189,0.646,0.142,0.502-0.144,1.031-0.653,1.18-0.091,0.028-0.182,0.041-0.272,0.041-0.412,0-0.791-0.275-0.913-0.687m-3.107-0.53c-0.165-0.564,0.163-1.158,0.727-1.324,0.573-0.172,1.171,0.154,1.33,0.72,0.165,0.571-0.152,1.162-0.722,1.332-0.102,0.03-0.204,0.044-0.304,0.044-0.466,0-0.891-0.303-1.031-0.772"/>
     </g>
    </g>
   </g>
  </g>
  <g id="g4003" transform="matrix(0.84438541,0,0,-0.84438541,-135.19702,144.9597)">
   <g id="g4005">
    <g id="g4011">
     <g id="g4013">
      <path id="path4023" fill="url(#linearGradient3349)" d="m459.63,121.06c-0.462-0.494-0.437-1.265,0.053-1.726,0.492-0.463,1.268-0.441,1.725,0.05,0.463,0.491,0.437,1.262-0.05,1.728-0.236,0.221-0.536,0.33-0.836,0.33-0.326,0-0.65-0.129-0.892-0.382m-3.87-0.299c-0.361-0.392-0.346-0.998,0.046-1.364,0.382-0.362,0.993-0.344,1.358,0.044,0.363,0.385,0.344,0.996-0.042,1.36-0.186,0.176-0.423,0.262-0.658,0.262-0.257,0-0.514-0.103-0.704-0.302m7.663-0.731c-0.523-0.549-0.498-1.42,0.053-1.942,0.553-0.525,1.426-0.495,1.945,0.054,0.518,0.551,0.497,1.424-0.057,1.942-0.269,0.253-0.607,0.378-0.944,0.378-0.364,0-0.726-0.146-0.997-0.432m-11.351-0.764c-0.294-0.314-0.281-0.801,0.029-1.098,0.316-0.297,0.808-0.283,1.104,0.031,0.292,0.309,0.279,0.805-0.028,1.1-0.153,0.14-0.347,0.21-0.54,0.21-0.208,0-0.413-0.081-0.565-0.243m14.556-1.385c-0.601-0.635-0.576-1.635,0.061-2.234,0.633-0.602,1.639-0.567,2.235,0.06,0.599,0.644,0.57,1.642-0.064,2.245-0.305,0.285-0.692,0.426-1.078,0.426-0.421,0-0.842-0.168-1.154-0.497m-17.624-1.234c-0.22-0.237-0.21-0.602,0.021-0.823,0.24-0.224,0.604-0.211,0.821,0.022,0.222,0.236,0.21,0.602-0.022,0.824-0.114,0.104-0.259,0.156-0.402,0.156-0.154,0-0.306-0.06-0.418-0.179m20.256-2.12c-0.522-0.553-0.494-1.422,0.06-1.945,0.555-0.525,1.424-0.492,1.941,0.059,0.522,0.554,0.497,1.418-0.06,1.947-0.263,0.248-0.6,0.37-0.936,0.37-0.367,0-0.734-0.145-1.005-0.431m-22.688-1.097c-0.3-0.312-0.281-0.807,0.031-1.103,0.314-0.292,0.804-0.28,1.104,0.03,0.289,0.315,0.279,0.805-0.038,1.104-0.148,0.14-0.339,0.209-0.53,0.209-0.207,0-0.413-0.081-0.567-0.24m24.168-2.831c-0.467-0.492-0.441-1.267,0.049-1.726,0.495-0.469,1.271-0.439,1.732,0.053,0.461,0.488,0.436,1.261-0.052,1.727-0.238,0.22-0.54,0.33-0.841,0.33-0.325,0-0.648-0.129-0.888-0.384m-25.441-0.946c-0.357-0.394-0.344-0.995,0.044-1.362,0.383-0.364,0.994-0.34,1.362,0.037,0.363,0.387,0.342,1.004-0.044,1.363-0.187,0.178-0.425,0.266-0.662,0.266-0.255,0-0.51-0.102-0.7-0.304m25.747-3.293c-0.361-0.386-0.339-0.995,0.043-1.356,0.392-0.367,0.995-0.35,1.362,0.037,0.363,0.387,0.35,0.996-0.039,1.364-0.185,0.171-0.422,0.256-0.658,0.256-0.258,0-0.516-0.101-0.708-0.301m-25.816-0.591c-0.459-0.488-0.436-1.261,0.057-1.728,0.493-0.462,1.262-0.437,1.726,0.055,0.461,0.486,0.44,1.262-0.051,1.726-0.236,0.225-0.535,0.336-0.834,0.336-0.326,0-0.653-0.132-0.898-0.389m24.817-3.435c-0.295-0.311-0.281-0.805,0.035-1.105,0.314-0.297,0.807-0.277,1.105,0.04,0.289,0.309,0.279,0.803-0.033,1.102-0.153,0.138-0.347,0.207-0.54,0.207-0.208,0-0.415-0.081-0.567-0.244m-23.553-0.284c-0.524-0.548-0.504-1.421,0.053-1.941,0.555-0.521,1.426-0.489,1.941,0.059,0.52,0.549,0.496,1.426-0.054,1.944-0.265,0.251-0.602,0.373-0.937,0.373-0.367,0-0.733-0.147-1.003-0.435m2.332-3.066c-0.596-0.646-0.566-1.633,0.07-2.24,0.635-0.598,1.637-0.566,2.229,0.07,0.603,0.637,0.57,1.634-0.062,2.237-0.308,0.286-0.699,0.429-1.089,0.429-0.42,0-0.838-0.166-1.148-0.496m19.076-0.14c-0.218-0.236-0.207-0.603,0.025-0.82,0.235-0.217,0.604-0.21,0.817,0.03,0.225,0.227,0.216,0.598-0.021,0.815-0.112,0.107-0.255,0.16-0.398,0.16-0.155,0-0.31-0.062-0.423-0.185m-15.57-2.299c-0.52-0.541-0.496-1.414,0.062-1.938,0.553-0.523,1.426-0.492,1.936,0.055,0.521,0.556,0.503,1.426-0.054,1.943-0.265,0.251-0.604,0.375-0.942,0.375-0.367,0-0.732-0.146-1.002-0.435m12.212-0.053c-0.291-0.311-0.278-0.803,0.035-1.102,0.317-0.294,0.813-0.277,1.102,0.036,0.294,0.306,0.282,0.8-0.035,1.099-0.15,0.143-0.34,0.213-0.531,0.214-0.207,0-0.414-0.083-0.571-0.247m-8.203-1.182c-0.464-0.489-0.441-1.267,0.051-1.718,0.496-0.473,1.262-0.45,1.727,0.041,0.466,0.49,0.44,1.265-0.046,1.73-0.237,0.222-0.539,0.331-0.839,0.331-0.327,0-0.653-0.13-0.893-0.384m4.246-0.058c-0.361-0.383-0.341-0.996,0.044-1.359,0.386-0.366,0.998-0.344,1.358,0.043,0.366,0.384,0.352,0.992-0.036,1.357-0.188,0.176-0.425,0.263-0.661,0.263-0.257,0-0.513-0.103-0.705-0.304"/>
     </g>
    </g>
   </g>
  </g>
  <g id="g4025" transform="matrix(0.84438541,0,0,-0.84438541,-135.19702,144.9597)">
   <g id="g4027">
    <g id="g4033">
     <g id="g4035">
      <path id="path4045" fill="url(#linearGradient3351)" d="m460.66,125.37c-0.572-0.111-0.943-0.664-0.828-1.24,0.115-0.573,0.672-0.945,1.244-0.827,0.573,0.114,0.938,0.671,0.827,1.241-0.101,0.501-0.537,0.848-1.027,0.848-0.071,0-0.144-0.007-0.216-0.022m-4.379-0.289c-0.449-0.067-0.759-0.481-0.695-0.935,0.065-0.45,0.486-0.758,0.937-0.694,0.448,0.065,0.766,0.482,0.698,0.94-0.058,0.406-0.41,0.698-0.816,0.698-0.041,0-0.082-0.003-0.124-0.009m8.602-0.603c-0.683-0.177-1.102-0.866-0.924-1.555,0.172-0.686,0.875-1.102,1.556-0.926,0.684,0.176,1.097,0.877,0.923,1.56-0.149,0.581-0.665,0.962-1.233,0.962-0.106,0-0.214-0.013-0.322-0.041m-13.082-0.721c-0.389-0.172-0.567-0.619-0.4-1.014,0.165-0.386,0.622-0.566,1.009-0.398,0.393,0.164,0.573,0.617,0.403,1.01-0.126,0.291-0.411,0.463-0.709,0.463-0.102,0-0.204-0.02-0.303-0.061m16.822-1.174c-0.839-0.258-1.314-1.152-1.05-1.994,0.262-0.842,1.16-1.313,2.001-1.047,0.839,0.259,1.307,1.156,1.047,1.996-0.213,0.683-0.84,1.121-1.517,1.121-0.159,0-0.321-0.025-0.481-0.076m-20.866-1.174c-0.353-0.283-0.415-0.798-0.134-1.16,0.283-0.357,0.803-0.418,1.156-0.137,0.363,0.289,0.426,0.803,0.141,1.16-0.164,0.209-0.404,0.315-0.647,0.315-0.18,0-0.362-0.059-0.516-0.178m23.938-1.806c-0.912-0.334-1.378-1.341-1.04-2.259,0.339-0.913,1.353-1.377,2.261-1.043,0.91,0.341,1.377,1.352,1.04,2.262-0.264,0.715-0.935,1.15-1.647,1.151-0.204,0-0.412-0.036-0.614-0.111m-27.148-1.184c-0.481-0.336-0.596-0.99-0.254-1.467,0.34-0.477,1-0.592,1.475-0.252,0.472,0.334,0.59,0.996,0.25,1.471-0.207,0.293-0.529,0.447-0.857,0.447-0.212,0-0.427-0.064-0.614-0.199m29.287-2.545c-0.973-0.42-1.422-1.539-1.003-2.512,0.422-0.975,1.546-1.422,2.519-1.005,0.965,0.419,1.419,1.546,0.998,2.519-0.313,0.725-1.017,1.155-1.755,1.155-0.254,0-0.512-0.05-0.759-0.157m-31.539-1.135c-0.593-0.379-0.777-1.164-0.396-1.766,0.378-0.597,1.171-0.773,1.767-0.396,0.598,0.381,0.777,1.172,0.397,1.768-0.245,0.386-0.657,0.593-1.079,0.593-0.236,0-0.475-0.065-0.689-0.199m32.736-3.342c-0.867-0.429-1.227-1.49-0.797-2.353,0.438-0.883,1.491-1.232,2.361-0.801,0.868,0.434,1.23,1.48,0.796,2.353-0.311,0.623-0.936,0.983-1.584,0.983-0.261,0-0.526-0.058-0.776-0.182m-33.924-0.677c-0.769-0.434-1.044-1.399-0.611-2.174,0.434-0.768,1.403-1.043,2.172-0.607,0.769,0.429,1.043,1.402,0.609,2.175-0.292,0.517-0.834,0.809-1.391,0.809-0.264,0-0.532-0.065-0.779-0.203m33.982-3.977c-0.763-0.43-1.037-1.406-0.61-2.174,0.435-0.771,1.408-1.043,2.174-0.609,0.771,0.432,1.042,1.4,0.609,2.176-0.292,0.521-0.831,0.815-1.388,0.815-0.266,0-0.535-0.067-0.785-0.208m-33.924-0.308c-0.864-0.424-1.23-1.479-0.798-2.356,0.437-0.869,1.495-1.226,2.364-0.791,0.867,0.428,1.227,1.484,0.796,2.352-0.307,0.623-0.927,0.979-1.574,0.979-0.264,0-0.534-0.059-0.788-0.184m1.249-4.111c-0.969-0.419-1.422-1.542-1.001-2.514,0.421-0.975,1.551-1.419,2.517-1.003,0.968,0.419,1.418,1.547,0.996,2.517-0.313,0.725-1.015,1.157-1.754,1.157-0.253,0-0.51-0.051-0.758-0.157m31.684-0.217c-0.6-0.381-0.778-1.172-0.401-1.766,0.381-0.6,1.17-0.773,1.769-0.399,0.596,0.381,0.776,1.165,0.396,1.766-0.247,0.384-0.662,0.595-1.085,0.595-0.233,0-0.468-0.064-0.679-0.196m-29.3-3.68c-0.909-0.338-1.377-1.352-1.041-2.262,0.342-0.918,1.355-1.377,2.261-1.039,0.915,0.34,1.379,1.343,1.042,2.264-0.265,0.708-0.938,1.146-1.653,1.146-0.203,0-0.408-0.035-0.609-0.109m27.15-0.392c-0.479-0.342-0.589-1-0.254-1.477,0.34-0.475,0.998-0.59,1.475-0.252,0.478,0.34,0.587,0.994,0.249,1.478-0.204,0.289-0.531,0.444-0.862,0.444-0.211,0-0.423-0.062-0.608-0.193m-23.808-2.846c-0.84-0.264-1.312-1.155-1.047-1.996,0.264-0.848,1.158-1.313,1.996-1.047,0.842,0.262,1.315,1.154,1.049,1.996-0.212,0.682-0.843,1.119-1.523,1.119-0.157,0-0.317-0.023-0.475-0.072m20.79-0.574c-0.355-0.284-0.415-0.802-0.138-1.157,0.284-0.361,0.803-0.418,1.162-0.135,0.361,0.282,0.419,0.797,0.136,1.158-0.159,0.205-0.4,0.312-0.645,0.312-0.18,0-0.363-0.058-0.515-0.178m-16.733-1.887c-0.682-0.174-1.094-0.866-0.921-1.553,0.174-0.69,0.869-1.102,1.553-0.922,0.685,0.172,1.104,0.861,0.929,1.554-0.147,0.579-0.67,0.962-1.241,0.962-0.106,0-0.213-0.013-0.32-0.041m13.107-0.344c-0.391-0.164-0.571-0.617-0.405-1.004,0.172-0.394,0.621-0.573,1.012-0.402,0.39,0.166,0.572,0.613,0.406,1.004-0.127,0.29-0.412,0.465-0.71,0.465-0.101,0-0.204-0.02-0.303-0.063m-8.668-0.955c-0.573-0.113-0.942-0.674-0.828-1.244,0.113-0.573,0.674-0.943,1.245-0.835,0.571,0.118,0.944,0.676,0.83,1.25-0.1,0.503-0.545,0.849-1.038,0.849-0.069,0-0.139-0.006-0.209-0.02m4.553-0.149c-0.446-0.064-0.762-0.486-0.694-0.937,0.065-0.452,0.489-0.764,0.936-0.694,0.453,0.067,0.765,0.481,0.696,0.933-0.058,0.41-0.411,0.707-0.817,0.707-0.04,0-0.08-0.003-0.121-0.009"/>
     </g>
    </g>
   </g>
  </g>
  <g id="g4047" transform="matrix(0.84438541,0,0,-0.84438541,-135.19702,144.9597)">
   <g id="g4049">
    <g id="g4055">
     <g id="g4057">
      <path id="path4067" fill="url(#linearGradient3353)" d="m457.89,129.26c0-0.549,0.443-0.991,0.989-0.991,0.54,0,0.983,0.442,0.983,0.991,0,0.543-0.443,0.984-0.983,0.984-0.546,0-0.989-0.441-0.989-0.984m-4.958,0.271c-0.564-0.15-0.9-0.725-0.753-1.292,0.154-0.567,0.736-0.901,1.3-0.751,0.565,0.15,0.899,0.731,0.749,1.295-0.129,0.475-0.553,0.785-1.018,0.785-0.092,0-0.185-0.012-0.278-0.037m10.596-0.748c-0.153-0.564,0.183-1.145,0.747-1.295s1.144,0.184,1.299,0.751c0.149,0.564-0.191,1.142-0.755,1.292-0.092,0.025-0.184,0.036-0.275,0.036-0.465,0-0.891-0.308-1.016-0.784m4.983-2.175c-0.16-0.729,0.31-1.447,1.04-1.604s1.453,0.307,1.604,1.035c0.161,0.741-0.312,1.455-1.042,1.609-0.095,0.02-0.19,0.03-0.284,0.03-0.623,0-1.185-0.432-1.318-1.07m-20.874,1.04c-0.734-0.154-1.201-0.868-1.045-1.609,0.159-0.728,0.876-1.192,1.605-1.035,0.732,0.157,1.199,0.875,1.045,1.604-0.135,0.638-0.698,1.07-1.321,1.07-0.094,0-0.189-0.01-0.284-0.03m25.11-4.55c-0.138-0.898,0.473-1.734,1.367-1.879,0.893-0.144,1.735,0.47,1.875,1.367,0.143,0.896-0.471,1.729-1.359,1.875-0.085,0.013-0.17,0.02-0.254,0.02-0.797,0-1.499-0.571-1.629-1.383m-29.62,1.363c-0.894-0.146-1.505-0.979-1.362-1.875,0.14-0.897,0.981-1.508,1.871-1.363,0.897,0.141,1.506,0.977,1.365,1.875-0.127,0.812-0.83,1.383-1.621,1.383-0.084,0-0.168-0.007-0.253-0.02m-3.445-4.125c-1.117-0.121-1.935-1.119-1.814-2.248,0.115-1.121,1.119-1.935,2.244-1.817,1.122,0.115,1.938,1.124,1.82,2.24-0.111,1.058-0.997,1.837-2.028,1.837-0.073,0-0.147-0.004-0.222-0.012m36.135-1.825c-0.117-1.116,0.701-2.125,1.819-2.245,1.124-0.113,2.128,0.701,2.245,1.822,0.117,1.129-0.693,2.127-1.818,2.248-0.072,0.007-0.144,0.011-0.216,0.011-1.028,0-1.919-0.776-2.03-1.836m1.981-5.373c-0.068-1.242,0.887-2.308,2.128-2.368,1.242-0.067,2.306,0.891,2.372,2.133,0.067,1.25-0.895,2.3-2.132,2.365-0.042,0.002-0.084,0.003-0.126,0.003-1.188,0-2.181-0.928-2.242-2.133m-40.214,2.13c-1.237-0.065-2.199-1.115-2.13-2.365,0.066-1.242,1.129-2.2,2.37-2.133,1.243,0.06,2.196,1.126,2.132,2.368-0.062,1.205-1.054,2.133-2.246,2.133-0.041,0-0.083-0.001-0.126-0.003m40.751-7.918c0-1.359,1.096-2.456,2.45-2.456,1.355,0,2.453,1.097,2.453,2.45,0,1.365-1.098,2.453-2.453,2.453-1.354,0-2.45-1.088-2.45-2.447m-43.824-0.006c0-1.353,1.101-2.45,2.457-2.45,1.348,0,2.444,1.097,2.444,2.456s-1.096,2.447-2.444,2.447c-1.356,0-2.457-1.088-2.457-2.453m45.415-3.418c-1.241-0.068-2.196-1.129-2.128-2.372,0.063-1.245,1.125-2.193,2.368-2.126,1.237,0.062,2.199,1.117,2.132,2.363-0.065,1.204-1.066,2.138-2.258,2.138-0.038,0-0.076-0.001-0.114-0.003m-44.472-2.135c-0.067-1.246,0.893-2.301,2.13-2.363,1.247-0.067,2.308,0.881,2.376,2.126,0.06,1.243-0.893,2.304-2.136,2.372-0.038,0.002-0.076,0.003-0.114,0.003-1.192,0-2.192-0.934-2.256-2.138m42.182-3.367c-1.121-0.118-1.936-1.129-1.819-2.246,0.119-1.129,1.13-1.936,2.246-1.821,1.125,0.124,1.935,1.12,1.818,2.248-0.109,1.051-0.994,1.831-2.027,1.831-0.072,0-0.145-0.004-0.218-0.012m-39.768-1.819c-0.119-1.13,0.697-2.124,1.814-2.248,1.125-0.115,2.131,0.692,2.25,1.821,0.118,1.117-0.698,2.128-1.82,2.246-0.072,0.008-0.145,0.012-0.216,0.012-1.034,0-1.917-0.786-2.028-1.831m36.246-3.134c-0.894-0.142-1.505-0.977-1.367-1.875,0.144-0.899,0.987-1.502,1.883-1.365,0.888,0.148,1.502,0.978,1.359,1.878-0.127,0.808-0.824,1.382-1.617,1.382-0.085,0-0.171-0.007-0.258-0.02m-32.349-1.362c-0.143-0.9,0.468-1.738,1.362-1.878,0.89-0.137,1.737,0.466,1.874,1.365,0.143,0.892-0.468,1.733-1.365,1.871-0.088,0.014-0.176,0.021-0.262,0.021-0.788,0-1.483-0.573-1.609-1.379m27.786-2.417c-0.73-0.157-1.2-0.878-1.045-1.604,0.158-0.738,0.878-1.203,1.607-1.045,0.73,0.148,1.201,0.869,1.042,1.606-0.132,0.632-0.697,1.072-1.323,1.072-0.093,0-0.187-0.009-0.281-0.029m-22.956-1.043c-0.159-0.737,0.308-1.458,1.041-1.61,0.73-0.154,1.45,0.311,1.606,1.049,0.154,0.726-0.313,1.447-1.04,1.604-0.094,0.02-0.189,0.029-0.282,0.029-0.628,0-1.189-0.44-1.325-1.072m17.675-1.444c-0.559-0.154-0.895-0.733-0.747-1.299,0.151-0.564,0.734-0.896,1.296-0.746,0.564,0.155,0.904,0.729,0.752,1.295-0.127,0.473-0.558,0.786-1.027,0.786-0.091,0-0.183-0.012-0.274-0.036m-12.091-0.75c-0.147-0.566,0.189-1.14,0.753-1.295,0.564-0.15,1.145,0.182,1.296,0.746,0.15,0.566-0.184,1.145-0.749,1.299-0.091,0.024-0.183,0.036-0.273,0.036-0.468,0-0.898-0.313-1.027-0.786m5.711-1.023c0-0.546,0.443-0.981,0.989-0.981,0.54,0,0.983,0.435,0.983,0.983,0,0.549-0.443,0.986-0.983,0.986-0.546,0-0.989-0.437-0.989-0.988"/>
     </g>
    </g>
   </g>
  </g>
 </g>
</svg>
