<?xml version="1.0" encoding="UTF-8"?>
<!DOCTYPE svg PUBLIC "-//W3C//DTD SVG 1.1//EN" "http://www.w3.org/Graphics/SVG/1.1/DTD/svg11.dtd">
<!-- Creator: CorelDRAW X6 -->
<svg xmlns="http://www.w3.org/2000/svg" xml:space="preserve" width="25.0371mm" height="10.78mm" version="1.1" style="shape-rendering:geometricPrecision; text-rendering:geometricPrecision; image-rendering:optimizeQuality; fill-rule:evenodd; clip-rule:evenodd"
viewBox="0 0 2000 861"
 xmlns:xlink="http://www.w3.org/1999/xlink">
 <defs>
  <style type="text/css">
   <![CDATA[
    .fil2 {fill:#78BCDB}
    .fil1 {fill:#78BCDB;fill-rule:nonzero}
    .fil0 {fill:#FFFFFF;fill-rule:nonzero}
   ]]>
  </style>
 </defs>
 <g id="Camada_x0020_1">
  <metadata id="CorelCorpID_0Corel-Layer"/>
  <g id="_636165184">
   <path class="fil0" d="M1998 334c0,19 -6,35 -19,47 -13,12 -30,17 -52,17 -14,0 -29,-3 -45,-8 -16,-5 -24,-10 -24,-15l0 -42c0,-4 2,-5 5,-5l19 0c4,0 5,2 5,5l0 26c15,6 29,9 41,9 11,0 20,-3 26,-9 7,-6 10,-14 10,-24 0,-13 -10,-25 -29,-33 -24,-11 -40,-20 -50,-28 -14,-11 -21,-25 -21,-42 0,-18 6,-33 19,-45 13,-12 29,-18 49,-18 18,0 36,4 53,13 3,2 5,4 5,8l0 39c0,4 -2,5 -5,5l-19 0c-4,0 -5,-2 -5,-5l0 -25c-10,-4 -20,-6 -28,-6 -23,0 -34,10 -34,30 0,9 3,16 9,22 3,3 7,6 11,8 4,2 16,8 35,18 17,8 28,16 35,25 6,9 10,19 10,32zm-1100 242c0,4 -2,6 -6,6l-15 0 -61 177c-1,4 -4,6 -8,6l-36 0c-4,0 -7,-2 -8,-6l-61 -177 -14 0c-4,0 -6,-2 -6,-6l0 -28c0,-4 2,-6 6,-6l54 0c4,0 7,2 8,6l27 96c4,15 9,36 14,63 6,-29 11,-50 15,-63l30 -96c1,-4 4,-6 8,-6l47 0c4,0 6,2 6,6l0 28zm134 47c0,-18 -3,-31 -8,-38 -5,-8 -13,-11 -24,-11 -13,0 -22,5 -28,16 -4,7 -7,18 -8,33l68 0zm58 30c0,7 -3,10 -10,10l-116 0c1,37 17,55 48,55 16,0 33,-4 49,-13 2,-1 4,-2 6,-2 2,0 4,1 5,4l11 26c1,2 1,4 1,5 0,4 -6,8 -18,13 -19,8 -39,12 -60,12 -28,0 -49,-7 -65,-21 -22,-20 -33,-51 -33,-92 0,-35 9,-63 26,-85 17,-21 40,-32 69,-32 57,0 86,40 86,119zm159 -183c0,2 -2,4 -7,6l-77 30c-3,1 -5,2 -6,2 -1,0 -3,-2 -6,-7l-7 -13c-1,-3 -2,-5 -2,-6 0,-2 2,-4 6,-6l71 -42c2,-1 4,-2 7,-2 2,0 4,2 6,6l13 26c1,3 2,5 2,6zm-9 280c0,4 -2,6 -6,6l-112 0c-4,0 -6,-2 -6,-6l0 -28c0,-4 2,-6 6,-6l28 0 0 -134 -27 0c-5,0 -7,-2 -7,-7l0 -26c0,-5 2,-7 7,-7l75 0c5,0 7,2 7,7l0 167 28 0c4,0 6,2 6,6l0 28zm170 -4c0,4 -6,8 -19,12 -13,4 -27,6 -41,6 -31,0 -54,-10 -71,-29 -17,-19 -25,-46 -25,-82 0,-37 9,-67 27,-88 18,-21 43,-32 75,-32 7,0 16,1 27,3 13,3 21,6 25,9 1,1 2,3 2,7l0 59c0,4 -2,6 -6,6l-32 0c-4,0 -6,-2 -6,-6l0 -33c-3,-1 -6,-1 -10,-1 -29,0 -44,24 -44,73 0,24 4,41 11,52 7,11 18,16 34,16 11,0 23,-3 34,-8 2,-1 3,-1 4,-1 1,0 2,1 3,2l11 29c1,2 1,4 1,4zm246 4c0,4 -2,6 -6,6l-58 0c-4,0 -6,-1 -8,-3 -1,-2 -3,-7 -5,-16 -11,10 -20,17 -29,21 -9,4 -19,6 -32,6 -30,0 -49,-11 -57,-34 -3,-9 -5,-25 -5,-50l0 -97 -22 0c-4,0 -6,-2 -6,-6l0 -28c0,-4 2,-6 6,-6l70 0c5,0 7,2 7,7l0 128c0,16 1,27 4,32 4,8 11,12 21,12 12,0 23,-5 35,-16l0 -122 -23 0c-4,0 -6,-2 -6,-6l0 -28c0,-4 2,-6 6,-6l71 0c5,0 7,2 7,7l0 131c0,14 1,26 4,37l20 0c4,0 6,2 6,6l0 28zm139 1c0,3 -5,6 -14,8 -9,3 -19,4 -29,4 -24,0 -40,-9 -48,-26 -4,-9 -6,-28 -6,-58l0 -195 -24 0c-4,0 -6,-2 -6,-6l0 -28c0,-4 2,-6 6,-6l73 0c4,0 6,2 6,6l0 225c0,15 0,24 1,27 1,6 5,10 11,10 2,0 5,-1 9,-2 4,-1 7,-2 9,-2 2,0 3,1 3,3l9 37c0,1 0,1 0,2zm144 -102c0,-26 -3,-44 -8,-55 -6,-11 -15,-17 -28,-17 -12,0 -21,6 -27,17 -6,11 -8,29 -8,54 0,25 3,43 8,54 6,11 15,17 27,17 13,0 22,-6 28,-17 6,-11 8,-29 8,-54zm59 -1c0,35 -8,63 -25,84 -17,21 -40,31 -69,31 -30,0 -53,-10 -70,-30 -17,-20 -25,-48 -25,-84 0,-35 8,-63 25,-83 18,-21 41,-32 71,-32 28,0 51,10 68,31 17,21 25,48 25,83zm-1177 -314c0,19 -6,35 -19,47 -13,12 -30,17 -52,17 -14,0 -29,-3 -45,-8 -16,-5 -24,-10 -24,-15l0 -42c0,-4 2,-5 5,-5l19 0c4,0 5,2 5,5l0 26c15,6 29,9 40,9 11,0 20,-3 26,-9 7,-6 10,-14 10,-24 0,-13 -10,-25 -29,-33 -24,-11 -40,-20 -50,-28 -14,-11 -21,-25 -21,-42 0,-18 6,-33 19,-45 13,-12 29,-18 49,-18 18,0 36,4 53,13 3,2 5,4 5,8l0 39c0,4 -2,5 -5,5l-19 0c-4,0 -5,-2 -5,-5l0 -25c-10,-4 -20,-6 -28,-6 -23,0 -34,10 -34,30 0,9 3,16 9,22 3,3 7,6 11,8 4,2 16,8 35,18 17,8 28,16 35,25 6,9 10,19 10,32zm82 -220l-10 0 -11 0c-4,0 -6,-2 -6,-6l0 -29c0,-5 2,-7 6,-7l11 0 10 0 11 0c4,0 6,2 6,7l0 29c0,4 -2,6 -6,6l-11 0zm47 273c0,4 -2,5 -5,5l-84 0c-4,0 -5,-2 -5,-5l0 -17c0,-4 2,-5 5,-5l25 0 0 -159 -35 0c-3,0 -5,-2 -5,-5l0 -17c0,-4 2,-5 5,-5l64 0c3,0 5,2 5,5l0 182 25 0c4,0 5,2 5,5l0 17zm336 0c0,4 -2,5 -5,5l-53 0c-3,0 -5,-2 -5,-5l0 -154c0,-22 -10,-33 -29,-33 -13,0 -28,6 -45,18l0 147 25 0c3,0 5,2 5,5l0 17c0,4 -2,5 -5,5l-54 0c-3,0 -5,-2 -5,-5l0 -154c0,-22 -9,-33 -28,-33 -13,0 -28,6 -45,19l0 145 26 0c4,0 5,2 5,5l0 17c0,4 -2,5 -5,5l-84 0c-4,0 -5,-2 -5,-5l0 -17c0,-4 2,-5 5,-5l25 0 0 -138c0,-8 -1,-15 -4,-21l-25 0c-4,0 -5,-2 -5,-5l0 -17c0,-4 2,-5 5,-5l43 0c4,0 9,7 13,21 22,-18 43,-27 63,-27 21,0 36,9 43,26 24,-18 46,-26 65,-26 19,0 33,7 40,20 5,9 8,23 8,43l0 130 25 0c4,0 5,2 5,5l0 17zm173 -105c0,-26 -2,-45 -7,-57 -6,-16 -16,-23 -32,-23 -13,0 -30,7 -52,22l0 126c19,13 35,19 49,19 15,0 26,-7 32,-20 6,-13 10,-35 10,-66zm36 -1c0,37 -7,66 -20,87 -13,21 -31,32 -54,32 -17,0 -34,-7 -53,-20l0 76 25 0c3,0 5,2 5,5l0 17c0,4 -2,5 -5,5l-84 0c-4,0 -5,-2 -5,-5l0 -17c0,-4 2,-5 5,-5l25 0 0 -215c0,-16 -1,-27 -4,-34l-25 0c-3,0 -5,-2 -5,-5l0 -17c0,-4 2,-5 5,-5l39 0c4,0 8,1 9,3 2,2 4,8 8,17 22,-18 44,-26 64,-26 26,0 44,10 54,31 10,20 15,47 15,79zm138 105c0,2 -4,5 -13,7 -8,3 -17,4 -25,4 -26,0 -41,-10 -46,-31 -1,-7 -2,-25 -2,-55l0 -211 -27 0c-4,0 -5,-2 -5,-5l0 -17c0,-4 2,-5 5,-5l56 0c3,0 4,2 4,5l0 235c0,21 0,34 1,41 1,11 7,17 18,17 6,0 13,-2 20,-5 2,-1 3,-1 4,-1 1,0 3,1 3,3l5 17c1,2 1,3 1,3zm154 -121c-1,-44 -17,-66 -47,-66 -30,0 -47,22 -49,66l97 0zm36 20c0,5 -2,8 -5,8l-128 0c2,50 22,76 59,76 16,0 33,-5 52,-16 1,-1 3,-1 4,-1 1,0 2,1 3,2l8 17c1,1 1,2 1,3 0,3 -5,7 -16,13 -18,8 -36,13 -55,13 -28,0 -51,-10 -68,-31 -17,-20 -25,-48 -25,-83 0,-35 8,-62 24,-83 16,-21 38,-31 64,-31 38,0 63,18 75,54 4,13 7,33 7,60z"/>
   <g>
    <path class="fil1" d="M472 456l-323 391c-8,9 -16,14 -26,14 -62,0 -5,0 -68,0 -10,0 -14,-5 -14,-14l-1 -210 -29 0c-7,0 -11,-3 -11,-14l0 -50c0,-10 3,-14 12,-14l121 0c8,0 12,4 11,11l-5 56c-3,31 -8,73 -16,125l0 0c37,-52 68,-94 92,-125l173 -223c6,-8 13,-11 21,-11l88 0c7,0 10,1 10,3 0,2 0,6 -4,11l-34 51z"/>
    <path class="fil1" d="M76 405l323 -391c8,-9 16,-14 26,-14 62,0 5,0 68,0 10,0 14,5 14,14l1 210 29 0c7,0 11,3 11,14l0 50c0,10 -3,14 -12,14l-121 0c-8,0 -12,-4 -11,-11l5 -56c3,-31 8,-73 16,-125l0 0c-37,52 -68,94 -92,125l-173 223c-6,8 -13,11 -21,11l-88 0c-7,0 -10,-1 -10,-3 0,-2 0,-6 4,-11l34 -51z"/>
    <path class="fil2" d="M516 392l-420 0c-5,0 -11,4 -15,8l-50 61c-4,5 -3,8 1,8l420 0c5,0 11,-4 15,-8l50 -61c4,-5 3,-8 -1,-8z"/>
   </g>
  </g>
 </g>
</svg>
<?xml version="1.0" encoding="utf-8"?>
<!-- Generator: Adobe Illustrator 18.0.0, SVG Export Plug-In . SVG Version: 6.00 Build 0)  -->
<!DOCTYPE svg PUBLIC "-//W3C//DTD SVG 1.1//EN" "http://www.w3.org/Graphics/SVG/1.1/DTD/svg11.dtd">
<svg version="1.1" id="Layer_1" xmlns="http://www.w3.org/2000/svg" xmlns:xlink="http://www.w3.org/1999/xlink" x="0px" y="0px"
	 width="71px" height="30.6px" viewBox="0 0 71 30.6" enable-background="new 0 0 71 30.6" xml:space="preserve">
<path fill="#EA5050" d="M49.8,13.9c0,0.3-0.1,0.5-0.3,0.7c-0.2,0.2-0.4,0.2-0.7,0.2c-0.2,0-0.4,0-0.6-0.1c-0.2-0.1-0.3-0.1-0.3-0.2
	v-0.6c0-0.1,0-0.1,0.1-0.1h0.3c0.1,0,0.1,0,0.1,0.1v0.4c0.2,0.1,0.4,0.1,0.6,0.1c0.2,0,0.3,0,0.4-0.1c0.1-0.1,0.1-0.2,0.1-0.3
	c0-0.2-0.1-0.4-0.4-0.5c-0.3-0.2-0.6-0.3-0.7-0.4c-0.2-0.2-0.3-0.4-0.3-0.6c0-0.3,0.1-0.5,0.3-0.6c0.2-0.2,0.4-0.3,0.7-0.3
	c0.3,0,0.5,0.1,0.8,0.2c0,0,0.1,0.1,0.1,0.1v0.6c0,0.1,0,0.1-0.1,0.1h-0.3c-0.1,0-0.1,0-0.1-0.1V12c-0.1-0.1-0.3-0.1-0.4-0.1
	c-0.3,0-0.5,0.1-0.5,0.4c0,0.1,0,0.2,0.1,0.3c0,0,0.1,0.1,0.2,0.1c0.1,0,0.2,0.1,0.5,0.3c0.2,0.1,0.4,0.2,0.5,0.4
	C49.7,13.6,49.8,13.7,49.8,13.9L49.8,13.9z M34,17.4C34,17.4,34,17.5,34,17.4l-0.3,0.1L32.8,20c0,0.1-0.1,0.1-0.1,0.1h-0.5
	c-0.1,0-0.1,0-0.1-0.1l-0.9-2.5H31c-0.1,0-0.1,0-0.1-0.1V17c0-0.1,0-0.1,0.1-0.1h0.8c0.1,0,0.1,0,0.1,0.1l0.4,1.4
	c0.1,0.2,0.1,0.5,0.2,0.9c0.1-0.4,0.2-0.7,0.2-0.9l0.4-1.4c0-0.1,0.1-0.1,0.1-0.1h0.7c0.1,0,0.1,0,0.1,0.1V17.4z M35.9,18
	c0-0.3,0-0.4-0.1-0.5c-0.1-0.1-0.2-0.2-0.3-0.2c-0.2,0-0.3,0.1-0.4,0.2C35,17.7,35,17.8,35,18H35.9z M36.8,18.5c0,0.1,0,0.1-0.1,0.1
	H35c0,0.5,0.2,0.8,0.7,0.8c0.2,0,0.5-0.1,0.7-0.2c0,0,0.1,0,0.1,0s0.1,0,0.1,0.1l0.2,0.4c0,0,0,0.1,0,0.1c0,0.1-0.1,0.1-0.3,0.2
	C36.1,20,35.9,20,35.6,20c-0.4,0-0.7-0.1-0.9-0.3c-0.3-0.3-0.5-0.7-0.5-1.3c0-0.5,0.1-0.9,0.4-1.2c0.2-0.3,0.6-0.5,1-0.5
	C36.3,16.7,36.8,17.3,36.8,18.5L36.8,18.5z M39,15.8c0,0,0,0.1-0.1,0.1l-1.1,0.4c0,0-0.1,0-0.1,0c0,0,0,0-0.1-0.1l-0.1-0.2
	c0,0,0-0.1,0-0.1c0,0,0-0.1,0.1-0.1l1-0.6c0,0,0.1,0,0.1,0c0,0,0.1,0,0.1,0.1L39,15.8C39,15.8,39,15.8,39,15.8z M38.9,19.9
	C38.9,19.9,38.9,19.9,38.9,19.9l-1.7,0.1c-0.1,0-0.1,0-0.1-0.1v-0.4c0-0.1,0-0.1,0.1-0.1h0.4v-1.9h-0.4c-0.1,0-0.1,0-0.1-0.1V17
	c0-0.1,0-0.1,0.1-0.1h1.1c0.1,0,0.1,0,0.1,0.1v2.4h0.4c0.1,0,0.1,0,0.1,0.1L38.9,19.9L38.9,19.9z M41.4,19.8c0,0.1-0.1,0.1-0.3,0.2
	c-0.2,0.1-0.4,0.1-0.6,0.1c-0.4,0-0.8-0.1-1-0.4c-0.2-0.3-0.4-0.7-0.4-1.2c0-0.5,0.1-1,0.4-1.3c0.3-0.3,0.6-0.5,1.1-0.5
	c0.1,0,0.2,0,0.4,0c0.2,0,0.3,0.1,0.4,0.1c0,0,0,0,0,0.1v0.8c0,0.1,0,0.1-0.1,0.1h-0.5c-0.1,0-0.1,0-0.1-0.1v-0.5c0,0-0.1,0-0.1,0
	c-0.4,0-0.6,0.3-0.6,1c0,0.3,0.1,0.6,0.2,0.7c0.1,0.2,0.3,0.2,0.5,0.2c0.2,0,0.3,0,0.5-0.1c0,0,0,0,0.1,0c0,0,0,0,0,0L41.4,19.8
	C41.4,19.7,41.4,19.8,41.4,19.8L41.4,19.8z M44.9,19.9C44.9,19.9,44.9,19.9,44.9,19.9L44,19.9c-0.1,0-0.1,0-0.1,0c0,0,0-0.1-0.1-0.2
	c-0.2,0.1-0.3,0.2-0.4,0.3s-0.3,0.1-0.5,0.1c-0.4,0-0.7-0.2-0.8-0.5c0-0.1-0.1-0.4-0.1-0.7v-1.4h-0.3c-0.1,0-0.1,0-0.1-0.1V17
	c0-0.1,0-0.1,0.1-0.1h1c0.1,0,0.1,0,0.1,0.1v1.8c0,0.2,0,0.4,0.1,0.5c0.1,0.1,0.2,0.2,0.3,0.2c0.2,0,0.3-0.1,0.5-0.2v-1.7h-0.3
	c-0.1,0-0.1,0-0.1-0.1V17c0-0.1,0-0.1,0.1-0.1h1c0.1,0,0.1,0,0.1,0.1v1.9c0,0.2,0,0.4,0.1,0.5h0.3c0.1,0,0.1,0,0.1,0.1V19.9
	L44.9,19.9z M46.9,19.9c0,0-0.1,0.1-0.2,0.1c-0.1,0-0.3,0.1-0.4,0.1c-0.3,0-0.6-0.1-0.7-0.4c-0.1-0.1-0.1-0.4-0.1-0.8V16h-0.3
	c-0.1,0-0.1,0-0.1-0.1v-0.4c0-0.1,0-0.1,0.1-0.1h1c0.1,0,0.1,0,0.1,0.1v3.2c0,0.2,0,0.3,0,0.4c0,0.1,0.1,0.1,0.2,0.1
	c0,0,0.1,0,0.1,0c0.1,0,0.1,0,0.1,0c0,0,0,0,0,0L46.9,19.9C46.9,19.8,46.9,19.8,46.9,19.9L46.9,19.9z M48.9,18.4
	c0-0.4,0-0.6-0.1-0.8c-0.1-0.2-0.2-0.2-0.4-0.2c-0.2,0-0.3,0.1-0.4,0.2s-0.1,0.4-0.1,0.8c0,0.4,0,0.6,0.1,0.8
	c0.1,0.2,0.2,0.2,0.4,0.2c0.2,0,0.3-0.1,0.4-0.2C48.9,19,48.9,18.8,48.9,18.4L48.9,18.4z M49.8,18.4c0,0.5-0.1,0.9-0.4,1.2
	s-0.6,0.4-1,0.4c-0.4,0-0.8-0.1-1-0.4c-0.2-0.3-0.4-0.7-0.4-1.2c0-0.5,0.1-0.9,0.4-1.2c0.3-0.3,0.6-0.5,1-0.5c0.4,0,0.7,0.1,1,0.4
	C49.7,17.5,49.8,17.9,49.8,18.4z M32.9,13.9c0,0.3-0.1,0.5-0.3,0.7c-0.2,0.2-0.4,0.2-0.7,0.2c-0.2,0-0.4,0-0.6-0.1
	c-0.2-0.1-0.3-0.1-0.3-0.2v-0.6c0-0.1,0-0.1,0.1-0.1h0.3c0.1,0,0.1,0,0.1,0.1v0.4c0.2,0.1,0.4,0.1,0.6,0.1c0.2,0,0.3,0,0.4-0.1
	c0.1-0.1,0.1-0.2,0.1-0.3c0-0.2-0.1-0.4-0.4-0.5c-0.3-0.2-0.6-0.3-0.7-0.4c-0.2-0.2-0.3-0.4-0.3-0.6c0-0.3,0.1-0.5,0.3-0.6
	c0.2-0.2,0.4-0.3,0.7-0.3c0.3,0,0.5,0.1,0.8,0.2c0,0,0.1,0.1,0.1,0.1v0.6c0,0.1,0,0.1-0.1,0.1h-0.3c-0.1,0-0.1,0-0.1-0.1V12
	c-0.1-0.1-0.3-0.1-0.4-0.1c-0.3,0-0.5,0.1-0.5,0.4c0,0.1,0,0.2,0.1,0.3c0,0,0.1,0.1,0.2,0.1s0.2,0.1,0.5,0.3
	c0.2,0.1,0.4,0.2,0.5,0.4C32.9,13.6,32.9,13.7,32.9,13.9L32.9,13.9z M34.1,10.7h-0.1h-0.2c-0.1,0-0.1,0-0.1-0.1v-0.4
	c0-0.1,0-0.1,0.1-0.1h0.2h0.1h0.2c0.1,0,0.1,0,0.1,0.1v0.4c0,0.1,0,0.1-0.1,0.1H34.1z M34.8,14.7C34.8,14.7,34.7,14.7,34.8,14.7
	l-1.3,0.1c-0.1,0-0.1,0-0.1-0.1v-0.2c0-0.1,0-0.1,0.1-0.1h0.4v-2.3h-0.5c0,0-0.1,0-0.1-0.1v-0.2c0-0.1,0-0.1,0.1-0.1h0.9
	c0,0,0.1,0,0.1,0.1v2.6h0.4c0.1,0,0.1,0,0.1,0.1V14.7L34.8,14.7z M39.6,14.7C39.6,14.7,39.5,14.7,39.6,14.7l-0.8,0.1
	c0,0-0.1,0-0.1-0.1v-2.2c0-0.3-0.1-0.5-0.4-0.5c-0.2,0-0.4,0.1-0.6,0.3v2.1H38c0,0,0.1,0,0.1,0.1v0.2c0,0.1,0,0.1-0.1,0.1h-0.8
	c0,0-0.1,0-0.1-0.1v-2.2c0-0.3-0.1-0.5-0.4-0.5c-0.2,0-0.4,0.1-0.6,0.3v2.1h0.4c0.1,0,0.1,0,0.1,0.1v0.2c0,0.1,0,0.1-0.1,0.1h-1.2
	c-0.1,0-0.1,0-0.1-0.1v-0.2c0-0.1,0-0.1,0.1-0.1h0.4v-2c0-0.1,0-0.2-0.1-0.3h-0.4c-0.1,0-0.1,0-0.1-0.1v-0.2c0-0.1,0-0.1,0.1-0.1
	h0.6c0.1,0,0.1,0.1,0.2,0.3c0.3-0.3,0.6-0.4,0.9-0.4c0.3,0,0.5,0.1,0.6,0.4c0.3-0.3,0.7-0.4,0.9-0.4c0.3,0,0.5,0.1,0.6,0.3
	c0.1,0.1,0.1,0.3,0.1,0.6v1.9h0.4c0.1,0,0.1,0,0.1,0.1L39.6,14.7L39.6,14.7z M42.1,13.1c0-0.4,0-0.6-0.1-0.8
	c-0.1-0.2-0.2-0.3-0.5-0.3c-0.2,0-0.4,0.1-0.7,0.3v1.8c0.3,0.2,0.5,0.3,0.7,0.3c0.2,0,0.4-0.1,0.5-0.3C42,13.9,42.1,13.6,42.1,13.1
	L42.1,13.1z M42.6,13.1c0,0.5-0.1,0.9-0.3,1.2c-0.2,0.3-0.4,0.5-0.8,0.5c-0.2,0-0.5-0.1-0.8-0.3v1.1h0.4c0,0,0.1,0,0.1,0.1V16
	c0,0.1,0,0.1-0.1,0.1h-1.2c-0.1,0-0.1,0-0.1-0.1v-0.2c0-0.1,0-0.1,0.1-0.1h0.4v-3.1c0-0.2,0-0.4-0.1-0.5h-0.4c0,0-0.1,0-0.1-0.1
	v-0.2c0-0.1,0-0.1,0.1-0.1h0.6c0.1,0,0.1,0,0.1,0c0,0,0.1,0.1,0.1,0.2c0.3-0.3,0.6-0.4,0.9-0.4c0.4,0,0.6,0.1,0.8,0.4
	C42.5,12.3,42.6,12.7,42.6,13.1L42.6,13.1z M44.6,14.6c0,0-0.1,0.1-0.2,0.1c-0.1,0-0.2,0.1-0.4,0.1c-0.4,0-0.6-0.1-0.7-0.4
	c0-0.1,0-0.4,0-0.8v-3h-0.4c-0.1,0-0.1,0-0.1-0.1v-0.2c0-0.1,0-0.1,0.1-0.1h0.8c0,0,0.1,0,0.1,0.1v3.4c0,0.3,0,0.5,0,0.6
	c0,0.2,0.1,0.2,0.3,0.2c0.1,0,0.2,0,0.3-0.1c0,0,0,0,0.1,0s0,0,0,0L44.6,14.6C44.5,14.7,44.5,14.7,44.6,14.6L44.6,14.6z M46.8,12.9
	c0-0.6-0.2-0.9-0.7-0.9c-0.4,0-0.7,0.3-0.7,0.9H46.8L46.8,12.9z M47.3,13.2c0,0.1,0,0.1-0.1,0.1h-1.8c0,0.7,0.3,1.1,0.8,1.1
	c0.2,0,0.5-0.1,0.7-0.2c0,0,0,0,0.1,0c0,0,0,0,0,0l0.1,0.2c0,0,0,0,0,0c0,0-0.1,0.1-0.2,0.2c-0.3,0.1-0.5,0.2-0.8,0.2
	c-0.4,0-0.7-0.1-1-0.4c-0.2-0.3-0.4-0.7-0.4-1.2c0-0.5,0.1-0.9,0.3-1.2s0.5-0.4,0.9-0.4c0.5,0,0.9,0.3,1.1,0.8
	C47.2,12.5,47.3,12.8,47.3,13.2L47.3,13.2z"/>
<path fill="#78BCDB" d="M27.9,15.6l-4.6,5.6c-0.1,0.1-0.2,0.2-0.4,0.2c-0.9,0-0.1,0-1,0c-0.1,0-0.2-0.1-0.2-0.2l0-3h-0.4
	c-0.1,0-0.2,0-0.2-0.2v-0.7c0-0.1,0-0.2,0.2-0.2H23c0.1,0,0.2,0.1,0.2,0.2l-0.1,0.8c0,0.4-0.1,1-0.2,1.8l0,0c0.5-0.7,1-1.3,1.3-1.8
	l2.5-3.2c0.1-0.1,0.2-0.2,0.3-0.2h1.3c0.1,0,0.1,0,0.1,0s0,0.1-0.1,0.2L27.9,15.6L27.9,15.6z"/>
<path fill="#78BCDB" d="M22.2,14.9l4.6-5.6c0.1-0.1,0.2-0.2,0.4-0.2c0.9,0,0.1,0,1,0c0.1,0,0.2,0.1,0.2,0.2l0,3h0.4
	c0.1,0,0.2,0,0.2,0.2v0.7c0,0.1,0,0.2-0.2,0.2h-1.7c-0.1,0-0.2-0.1-0.2-0.2l0.1-0.8c0-0.4,0.1-1,0.2-1.8l0,0c-0.5,0.7-1,1.3-1.3,1.8
	l-2.5,3.2c-0.1,0.1-0.2,0.2-0.3,0.2h-1.3c-0.1,0-0.1,0-0.1,0c0,0,0-0.1,0.1-0.2L22.2,14.9L22.2,14.9z"/>
<path fill="#78BCDB" d="M28.5,14.7h-6c-0.1,0-0.2,0.1-0.2,0.1l-0.7,0.9c-0.1,0.1,0,0.1,0,0.1h6c0.1,0,0.2-0.1,0.2-0.1l0.7-0.9
	C28.6,14.8,28.6,14.7,28.5,14.7z"/>
</svg>
