<?xml version="1.0" encoding="utf-8"?>
<!-- Generator: Adobe Illustrator 18.0.0, SVG Export Plug-In . SVG Version: 6.00 Build 0)  -->
<!DOCTYPE svg PUBLIC "-//W3C//DTD SVG 1.0//EN" "http://www.w3.org/TR/2001/REC-SVG-20010904/DTD/svg10.dtd">
<svg version="1.0" id="Layer_1" xmlns="http://www.w3.org/2000/svg" xmlns:xlink="http://www.w3.org/1999/xlink" x="0px" y="0px"
	 width="71px" height="30.6px" viewBox="0 0 71 30.6" enable-background="new 0 0 71 30.6" xml:space="preserve">
<path fill="#EA5050" d="M49.8,13.9c0,0.3-0.1,0.5-0.3,0.7s-0.4,0.2-0.7,0.2c-0.2,0-0.4,0-0.6-0.1c-0.2-0.1-0.3-0.1-0.3-0.2v-0.6
	c0-0.1,0-0.1,0.1-0.1h0.3c0.1,0,0.1,0,0.1,0.1v0.4c0.2,0.1,0.4,0.1,0.6,0.1c0.2,0,0.3,0,0.4-0.1c0.1-0.1,0.1-0.2,0.1-0.3
	c0-0.2-0.1-0.4-0.4-0.5c-0.3-0.2-0.6-0.3-0.7-0.4c-0.2-0.2-0.3-0.4-0.3-0.6c0-0.3,0.1-0.5,0.3-0.6c0.2-0.2,0.4-0.3,0.7-0.3
	s0.5,0.1,0.8,0.2l0.1,0.1v0.6c0,0.1,0,0.1-0.1,0.1h-0.3c-0.1,0-0.1,0-0.1-0.1V12c-0.1-0.1-0.3-0.1-0.4-0.1c-0.3,0-0.5,0.1-0.5,0.4
	c0,0.1,0,0.2,0.1,0.3c0,0,0.1,0.1,0.2,0.1c0.1,0,0.2,0.1,0.5,0.3c0.2,0.1,0.4,0.2,0.5,0.4C49.7,13.6,49.8,13.7,49.8,13.9L49.8,13.9z
	 M34,17.4C34,17.4,34,17.5,34,17.4l-0.3,0.1L32.8,20c0,0.1-0.1,0.1-0.1,0.1h-0.5c-0.1,0-0.1,0-0.1-0.1l-0.9-2.5H31
	c-0.1,0-0.1,0-0.1-0.1V17c0-0.1,0-0.1,0.1-0.1h0.8c0.1,0,0.1,0,0.1,0.1l0.4,1.4c0.1,0.2,0.1,0.5,0.2,0.9c0.1-0.4,0.2-0.7,0.2-0.9
	l0.4-1.4c0-0.1,0.1-0.1,0.1-0.1h0.7c0.1,0,0.1,0,0.1,0.1V17.4z M35.9,18c0-0.3,0-0.4-0.1-0.5s-0.2-0.2-0.3-0.2
	c-0.2,0-0.3,0.1-0.4,0.2C35,17.7,35,17.8,35,18H35.9z M36.8,18.5c0,0.1,0,0.1-0.1,0.1H35c0,0.5,0.2,0.8,0.7,0.8
	c0.2,0,0.5-0.1,0.7-0.2h0.1c0,0,0.1,0,0.1,0.1l0.2,0.4v0.1c0,0.1-0.1,0.1-0.3,0.2c-0.4,0-0.6,0-0.9,0c-0.4,0-0.7-0.1-0.9-0.3
	c-0.3-0.3-0.5-0.7-0.5-1.3c0-0.5,0.1-0.9,0.4-1.2c0.2-0.3,0.6-0.5,1-0.5C36.3,16.7,36.8,17.3,36.8,18.5L36.8,18.5z M39,15.8
	c0,0,0,0.1-0.1,0.1l-1.1,0.4h-0.1c0,0,0,0-0.1-0.1L37.5,16v-0.1c0,0,0-0.1,0.1-0.1l1-0.6h0.1c0,0,0.1,0,0.1,0.1L39,15.8L39,15.8z
	 M38.9,19.9L38.9,19.9L37.2,20c-0.1,0-0.1,0-0.1-0.1v-0.4c0-0.1,0-0.1,0.1-0.1h0.4v-1.9h-0.4c-0.1,0-0.1,0-0.1-0.1V17
	c0-0.1,0-0.1,0.1-0.1h1.1c0.1,0,0.1,0,0.1,0.1v2.4h0.4c0.1,0,0.1,0,0.1,0.1L38.9,19.9L38.9,19.9z M41.4,19.8c0,0.1-0.1,0.1-0.3,0.2
	s-0.4,0.1-0.6,0.1c-0.4,0-0.8-0.1-1-0.4s-0.4-0.7-0.4-1.2s0.1-1,0.4-1.3c0.3-0.3,0.6-0.5,1.1-0.5c0.1,0,0.2,0,0.4,0s0.3,0.1,0.4,0.1
	c0,0,0,0,0,0.1v0.8c0,0.1,0,0.1-0.1,0.1h-0.5c-0.1,0-0.1,0-0.1-0.1v-0.5h-0.1c-0.4,0-0.6,0.3-0.6,1c0,0.3,0.1,0.6,0.2,0.7
	c0.1,0.2,0.3,0.2,0.5,0.2s0.3,0,0.5-0.1c0,0,0,0,0.1,0l0,0L41.4,19.8C41.4,19.7,41.4,19.8,41.4,19.8L41.4,19.8z M44.9,19.9
	L44.9,19.9H44c-0.1,0-0.1,0-0.1,0s0-0.1-0.1-0.2c-0.2,0.1-0.3,0.2-0.4,0.3s-0.3,0.1-0.5,0.1c-0.4,0-0.7-0.2-0.8-0.5
	c0-0.1-0.1-0.4-0.1-0.7v-1.4h-0.3c-0.1,0-0.1,0-0.1-0.1V17c0-0.1,0-0.1,0.1-0.1h1c0.1,0,0.1,0,0.1,0.1v1.8c0,0.2,0,0.4,0.1,0.5
	s0.2,0.2,0.3,0.2c0.2,0,0.3-0.1,0.5-0.2v-1.7h-0.3c-0.1,0-0.1,0-0.1-0.1V17c0-0.1,0-0.1,0.1-0.1h1c0.1,0,0.1,0,0.1,0.1v1.9
	c0,0.2,0,0.4,0.1,0.5h0.3c0.1,0,0.1,0,0.1,0.1L44.9,19.9L44.9,19.9z M46.9,19.9c0,0-0.1,0.1-0.2,0.1c-0.1,0-0.3,0.1-0.4,0.1
	c-0.3,0-0.6-0.1-0.7-0.4c-0.1-0.1-0.1-0.4-0.1-0.8V16h-0.3c-0.1,0-0.1,0-0.1-0.1v-0.4c0-0.1,0-0.1,0.1-0.1h1c0.1,0,0.1,0,0.1,0.1
	v3.2c0,0.2,0,0.3,0,0.4s0.1,0.1,0.2,0.1h0.1c0.1,0,0.1,0,0.1,0l0,0L46.9,19.9C46.9,19.8,46.9,19.8,46.9,19.9L46.9,19.9z M48.9,18.4
	c0-0.4,0-0.6-0.1-0.8c-0.1-0.2-0.2-0.2-0.4-0.2s-0.3,0.1-0.4,0.2s-0.1,0.4-0.1,0.8s0,0.6,0.1,0.8c0.1,0.2,0.2,0.2,0.4,0.2
	s0.3-0.1,0.4-0.2C48.9,19,48.9,18.8,48.9,18.4L48.9,18.4z M49.8,18.4c0,0.5-0.1,0.9-0.4,1.2s-0.6,0.4-1,0.4s-0.8-0.1-1-0.4
	S47,18.9,47,18.4s0.1-0.9,0.4-1.2c0.3-0.3,0.6-0.5,1-0.5s0.7,0.1,1,0.4C49.7,17.5,49.8,17.9,49.8,18.4z M32.9,13.9
	c0,0.3-0.1,0.5-0.3,0.7s-0.4,0.2-0.7,0.2c-0.2,0-0.4,0-0.6-0.1S31,14.6,31,14.5v-0.6c0-0.1,0-0.1,0.1-0.1h0.3c0.1,0,0.1,0,0.1,0.1
	v0.4c0.2,0.1,0.4,0.1,0.6,0.1c0.2,0,0.3,0,0.4-0.1c0.1-0.1,0.1-0.2,0.1-0.3c0-0.2-0.1-0.4-0.4-0.5c-0.3-0.2-0.6-0.3-0.7-0.4
	c-0.2-0.2-0.3-0.4-0.3-0.6c0-0.3,0.1-0.5,0.3-0.6c0.2-0.2,0.4-0.3,0.7-0.3c0.3,0,0.5,0.1,0.8,0.2l0.1,0.1v0.6c0,0.1,0,0.1-0.1,0.1
	h-0.3c-0.1,0-0.1,0-0.1-0.1V12c-0.1-0.1-0.3-0.1-0.4-0.1c-0.3,0-0.5,0.1-0.5,0.4c0,0.1,0,0.2,0.1,0.3c0,0,0.1,0.1,0.2,0.1
	s0.2,0.1,0.5,0.3c0.2,0.1,0.4,0.2,0.5,0.4C32.9,13.6,32.9,13.7,32.9,13.9L32.9,13.9z M34.1,10.7L34.1,10.7h-0.3
	c-0.1,0-0.1,0-0.1-0.1v-0.4c0-0.1,0-0.1,0.1-0.1H34h0.1h0.2c0.1,0,0.1,0,0.1,0.1v0.4c0,0.1,0,0.1-0.1,0.1H34.1z M34.8,14.7
	C34.8,14.7,34.7,14.7,34.8,14.7l-1.3,0.1c-0.1,0-0.1,0-0.1-0.1v-0.2c0-0.1,0-0.1,0.1-0.1h0.4v-2.3h-0.5c0,0-0.1,0-0.1-0.1v-0.2
	c0-0.1,0-0.1,0.1-0.1h0.9c0,0,0.1,0,0.1,0.1v2.6h0.4c0.1,0,0.1,0,0.1,0.1v0.2H34.8z M39.6,14.7C39.6,14.7,39.5,14.7,39.6,14.7
	l-0.8,0.1c0,0-0.1,0-0.1-0.1v-2.2c0-0.3-0.1-0.5-0.4-0.5c-0.2,0-0.4,0.1-0.6,0.3v2.1H38c0,0,0.1,0,0.1,0.1v0.2c0,0.1,0,0.1-0.1,0.1
	h-0.8c0,0-0.1,0-0.1-0.1v-2.2c0-0.3-0.1-0.5-0.4-0.5c-0.2,0-0.4,0.1-0.6,0.3v2.1h0.4c0.1,0,0.1,0,0.1,0.1v0.2c0,0.1,0,0.1-0.1,0.1
	h-1.2c-0.1,0-0.1,0-0.1-0.1v-0.2c0-0.1,0-0.1,0.1-0.1h0.4v-2c0-0.1,0-0.2-0.1-0.3h-0.4c-0.1,0-0.1,0-0.1-0.1v-0.2
	c0-0.1,0-0.1,0.1-0.1h0.6c0.1,0,0.1,0.1,0.2,0.3c0.3-0.3,0.6-0.4,0.9-0.4c0.3,0,0.5,0.1,0.6,0.4c0.3-0.3,0.7-0.4,0.9-0.4
	c0.3,0,0.5,0.1,0.6,0.3c0.1,0.1,0.1,0.3,0.1,0.6v1.9h0.4c0.1,0,0.1,0,0.1,0.1L39.6,14.7L39.6,14.7z M42.1,13.1c0-0.4,0-0.6-0.1-0.8
	S41.8,12,41.5,12c-0.2,0-0.4,0.1-0.7,0.3v1.8c0.3,0.2,0.5,0.3,0.7,0.3s0.4-0.1,0.5-0.3C42,13.9,42.1,13.6,42.1,13.1L42.1,13.1z
	 M42.6,13.1c0,0.5-0.1,0.9-0.3,1.2s-0.4,0.5-0.8,0.5c-0.2,0-0.5-0.1-0.8-0.3v1.1h0.4c0,0,0.1,0,0.1,0.1V16c0,0.1,0,0.1-0.1,0.1h-1.2
	c-0.1,0-0.1,0-0.1-0.1v-0.2c0-0.1,0-0.1,0.1-0.1h0.4v-3.1c0-0.2,0-0.4-0.1-0.5h-0.4c0,0-0.1,0-0.1-0.1v-0.2c0-0.1,0-0.1,0.1-0.1h0.6
	c0.1,0,0.1,0,0.1,0s0.1,0.1,0.1,0.2c0.3-0.3,0.6-0.4,0.9-0.4c0.4,0,0.6,0.1,0.8,0.4C42.5,12.3,42.6,12.7,42.6,13.1L42.6,13.1z
	 M44.6,14.6c0,0-0.1,0.1-0.2,0.1c-0.1,0-0.2,0.1-0.4,0.1c-0.4,0-0.6-0.1-0.7-0.4c0-0.1,0-0.4,0-0.8v-3h-0.4c-0.1,0-0.1,0-0.1-0.1
	v-0.2c0-0.1,0-0.1,0.1-0.1h0.8c0,0,0.1,0,0.1,0.1v3.4c0,0.3,0,0.5,0,0.6c0,0.2,0.1,0.2,0.3,0.2c0.1,0,0.2,0,0.3-0.1c0,0,0,0,0.1,0
	s0,0,0,0L44.6,14.6C44.5,14.7,44.5,14.7,44.6,14.6L44.6,14.6z M46.8,12.9c0-0.6-0.2-0.9-0.7-0.9c-0.4,0-0.7,0.3-0.7,0.9H46.8
	L46.8,12.9z M47.3,13.2c0,0.1,0,0.1-0.1,0.1h-1.8c0,0.7,0.3,1.1,0.8,1.1c0.2,0,0.5-0.1,0.7-0.2c0,0,0,0,0.1,0l0,0l0.1,0.2l0,0
	c0,0-0.1,0.1-0.2,0.2c-0.3,0.1-0.5,0.2-0.8,0.2c-0.4,0-0.7-0.1-1-0.4c-0.2-0.3-0.4-0.7-0.4-1.2s0.1-0.9,0.3-1.2s0.5-0.4,0.9-0.4
	c0.5,0,0.9,0.3,1.1,0.8C47.2,12.5,47.3,12.8,47.3,13.2L47.3,13.2z"/>
<path fill="#78BCDB" d="M27.9,15.6l-4.6,5.6c-0.1,0.1-0.2,0.2-0.4,0.2c-0.9,0-0.1,0-1,0c-0.1,0-0.2-0.1-0.2-0.2v-3h-0.4
	c-0.1,0-0.2,0-0.2-0.2v-0.7c0-0.1,0-0.2,0.2-0.2H23c0.1,0,0.2,0.1,0.2,0.2l-0.1,0.8c0,0.4-0.1,1-0.2,1.8l0,0c0.5-0.7,1-1.3,1.3-1.8
	l2.5-3.2c0.1-0.1,0.2-0.2,0.3-0.2h1.3c0.1,0,0.1,0,0.1,0s0,0.1-0.1,0.2L27.9,15.6L27.9,15.6z"/>
<path fill="#78BCDB" d="M22.2,14.9l4.6-5.6c0.1-0.1,0.2-0.2,0.4-0.2c0.9,0,0.1,0,1,0c0.1,0,0.2,0.1,0.2,0.2v3h0.4
	c0.1,0,0.2,0,0.2,0.2v0.7c0,0.1,0,0.2-0.2,0.2h-1.7c-0.1,0-0.2-0.1-0.2-0.2l0.1-0.8c0-0.4,0.1-1,0.2-1.8l0,0c-0.5,0.7-1,1.3-1.3,1.8
	l-2.5,3.2c-0.1,0.1-0.2,0.2-0.3,0.2h-1.3c-0.1,0-0.1,0-0.1,0s0-0.1,0.1-0.2L22.2,14.9L22.2,14.9z"/>
<path fill="#78BCDB" d="M28.5,14.7h-6c-0.1,0-0.2,0.1-0.2,0.1l-0.7,0.9c-0.1,0.1,0,0.1,0,0.1h6c0.1,0,0.2-0.1,0.2-0.1l0.7-0.9
	C28.6,14.8,28.6,14.7,28.5,14.7z"/>
</svg>
